<?xml version="1.0" encoding="utf-8"?>
<!-- Generator: Adobe Illustrator 21.0.2, SVG Export Plug-In . SVG Version: 6.00 Build 0)  -->
<svg version="1.1" id="Layer_1" xmlns="http://www.w3.org/2000/svg" xmlns:xlink="http://www.w3.org/1999/xlink" x="0px" y="0px"
	 viewBox="0 0 102 77" style="enable-background:new 0 0 102 77;" xml:space="preserve">
<style type="text/css">
	.st0{fill:#FFFFFF;fill-opacity:1.000000e-02;}
	.st1{fill:#FFFEED;}
	.st2{fill:#37474F;}
	.st3{fill:#409AF7;}
	.st4{fill:#E2F5FD;}
</style>
<title>binoculars</title>
<desc>Created with Sketch.</desc>
<path id="Shape-Copy-2" class="st0" d="M101.3,75.2V1.8c0-1-0.7-1.8-1.7-1.8h-98C0.7,0,0,0.8,0,1.8v73.5c0,1,0.7,1.8,1.7,1.8h98
	C100.6,77,101.3,76.2,101.3,75.2z"/>
<path id="Shape-Copy" class="st1" d="M38,10c-2.7,0-5,0.9-6.7,2.6c-1.3,1.3-2,3.2-2.3,5.2c-5,1-9.4,4.1-11.3,9.3l-5.7,15
	c0,0.1,0,0.1-0.1,0.2c-1.2,2.4-1.9,5.1-1.9,8C10,60,17.9,68,27.7,68c8.2,0,15.1-5.6,17.1-13.2c1,0.6,2.2,1,3.4,1h5.6
	c1.3,0,2.4-0.4,3.4-1c2,7.6,8.9,13.2,17.1,13.2C84.1,68,92,60,92,50.2c0-2.9-0.7-5.6-2-8l-5.6-15.1c-1.9-5.2-6.3-8.4-11.3-9.3
	c-0.3-2-1-3.9-2.3-5.2C69.1,10.9,66.7,10,64,10c-4.5,0-8.6,2.8-9.7,7.1c-0.1,0.1-0.2,0.3-0.3,0.4h-3h-3c-0.1-0.1-0.2-0.3-0.3-0.4
	C46.5,12.8,42.5,10,38,10z"/>
<path id="Path-3" class="st2" d="M47.7,40.5c-0.1,0.6,0.4,1,0.9,1h10l-2.4-24l-6.4-0.1L47.7,40.5z"/>
<circle id="Oval" class="st3" cx="28" cy="53" r="9"/>
<circle id="Oval_1_" class="st3" cx="78" cy="53" r="9"/>
<path id="Path-2" class="st4" d="M18.9,35.3c1.1-3.7,0.4-12.9,13.6-14.7c0-9,14.5-11.6,13.6,0c-1.1,11.6-1.8,20.7-1.8,20.7
	S36.5,28.6,18.9,35.3z"/>
<path id="Path-2_1_" class="st4" d="M88.2,34.3c-1.1-3.7-0.4-12.9-13.6-14.7c0-9-14.5-11.6-13.6,0c1.1,11.6,1.8,20.7,1.8,20.7
	S70.5,27.6,88.2,34.3z"/>
<path id="Shape" d="M37,8c-2.8,0-5.4,1-7.2,2.8c-1.4,1.4-2.2,3.4-2.5,5.6c-5.4,1-10.1,4.4-12.2,10l-6,16c0,0.1,0,0.1-0.1,0.2
	c-1.2,2.5-2,5.3-2,8.4c0,10.5,8.5,19,19,19c8.8,0,16.2-6,18.3-14.1c1.1,0.7,2.3,1.1,3.7,1.1h6c1.3,0,2.6-0.4,3.7-1.1
	C59.8,64,67.2,70,76,70c10.5,0,19-8.5,19-19c0-3.1-0.8-6-2.1-8.6v-0.1l-6-16c-2.1-5.6-6.8-8.9-12.2-10c-0.3-2.2-1.1-4.1-2.5-5.6
	C70.4,9,67.8,8,65,8c-4.8,0-9.2,3-10.4,7.6c-0.1,0.1-0.3,0.3-0.3,0.4H51h-3.2c-0.1-0.1-0.2-0.3-0.3-0.4C46.2,11,41.8,8,37,8z M37,12
	c3.7,0,6.6,2.1,7,5.3l-2.1,23.3C38.5,35.4,32.6,32,26,32c-3.6,0-6.9,1-9.8,2.8l2.7-7.1c1.7-4.7,5.6-7.2,10.3-7.7c1-0.1,1.8-1,1.8-2
	c0-2,0.6-3.4,1.6-4.4C33.6,12.6,35,12,37,12z M65,12c2,0,3.4,0.6,4.4,1.6S71,16,71,18c0,1,0.8,1.9,1.8,2c4.7,0.5,8.6,3,10.3,7.7
	l2.7,7.1C82.9,33,79.6,32,76,32c-6.6,0-12.5,3.4-15.9,8.6L58,17.3C58.4,14.1,61.3,12,65,12z M47.8,20H51h3.2l2.1,23.4
	C55.6,43.1,54.8,43,54,43h-6c-0.8,0-1.6,0.1-2.3,0.4L47.8,20z M26,36c8.3,0,15,6.7,15,15c0,0.1,0,0.1,0,0.2C40.9,59.4,34.2,66,26,66
	c-8.3,0-15-6.7-15-15c0-2.5,0.6-4.8,1.7-6.8c0.1-0.1,0.1-0.2,0.2-0.3C15.3,39.2,20.3,36,26,36z M76,36c5.7,0,10.6,3.2,13.2,7.8
	c0.1,0.1,0.1,0.3,0.2,0.4c1,2,1.6,4.3,1.6,6.8c0,8.3-6.7,15-15,15c-8.2,0-14.8-6.5-15-14.7c0-0.1,0-0.2,0-0.3v-0.1v-0.1
	C61.1,42.6,67.8,36,76,36z M26,38c-7.2,0-13,5.8-13,13s5.8,13,13,13s13-5.8,13-13S33.2,38,26,38z M76,38c-7.2,0-13,5.8-13,13
	s5.8,13,13,13s13-5.8,13-13S83.2,38,76,38z M26,42c5,0,9,4,9,9s-4,9-9,9s-9-4-9-9S21,42,26,42z M76,42c5,0,9,4,9,9s-4,9-9,9
	s-9-4-9-9S71,42,76,42z M48,47h6c1.3,0,2.3,0.8,2.8,1.9l0.2,1.7C56.7,52,55.5,53,54,53h-6c-1.5,0-2.7-1-2.9-2.4l0.2-1.8
	C45.7,47.7,46.7,47,48,47z"/>
</svg>
