<?xml version="1.0" encoding="utf-8"?>
<!-- Generator: Adobe Illustrator 21.0.2, SVG Export Plug-In . SVG Version: 6.00 Build 0)  -->
<svg version="1.1" id="Layer_1" xmlns="http://www.w3.org/2000/svg" xmlns:xlink="http://www.w3.org/1999/xlink" x="0px" y="0px"
	 viewBox="0 0 102 77" style="enable-background:new 0 0 102 77;" xml:space="preserve">
<style type="text/css">
	.st0{fill:#FFFFFF;fill-opacity:1.000000e-02;}
	.st1{fill:#FFFEED;}
	.st2{fill:#ED1E24;}
</style>
<title>requirements</title>
<desc>Created with Sketch.</desc>
<g id="Page-1">
	<g id="requirements">
		<path id="Shape-Copy-2" class="st0" d="M101.3,75.2V1.8c0-1-0.7-1.8-1.7-1.8h-98C0.7,0,0,0.8,0,1.8v73.5c0,1,0.7,1.8,1.7,1.8h98
			C100.6,77,101.3,76.2,101.3,75.2z"/>
		<g id="Group" transform="translate(4.000000, 12.000000)">
			<path id="Path" class="st1" d="M89,6.8c-1.1-2.3-3-4.1-5.4-5c-2.4-0.9-4.7-0.4-7.1,0.7L31,22.1c-4.4,0-6.8-4.4-8.8-8.4
				c-1.2-2.3-2.1-3.5-1.5-5.9c0,0-5.9,5.1-6.6,5.1c-0.7,0-3.7-1.3-5.2-2.6c-1.1,2.8,2.4,11.3,9.4,16.7L7.8,31.2
				c-0.1,0.1-0.2,0.1-0.3,0.1c-3,1.3-5.1,3.8-6.2,6.8c-1.1,2.9-0.9,5.7,0.5,8.4c2.7,5.4,7.5,7.5,13.7,5.7c0.7-0.2,1.4-0.5,2.1-0.8
				l68.4-29c0.3-0.1,0.5-0.4,0.7-0.7c0.1-0.3,0.1-0.6,0-0.9c-0.3-0.6-1.6,0.3-2.2,0.6c-3.3,1.4-5.7,0.5-8.2-0.5l8.6-3.9
				C88.8,15.2,90.8,10.7,89,6.8z"/>
			<path id="Path-5" class="st2" d="M54.5,35.6c2.3-5.3,3.1-14.2-8.4-18.2c5.5-2.3,7.9-2.5,9.3-3c6.5,1.1,11.1,7.2,7.8,17.1
				C60.7,32.6,60.1,33.4,54.5,35.6z"/>
			<path id="Path-6" class="st2" d="M24,24.5c4.9-2.2,6.5-2.8,6.5-2.8S20.7,22.9,21,8.6c-5,4-3.6,2.7-3.6,2.7s-2.4,2.6-4.3,1.5
				C13.1,17,14.2,24.1,24,24.5z"/>
			<path id="Shape" d="M92.3,6.6c1.9,4.1,0,9-4.2,10.9l-9,3.9c2.6,1,5.7,0.8,9.1-0.7c0.6-0.3,1.4,0,1.7,0.6c0.1,0.3,0.2,0.7,0,1
				c-0.1,0.3-0.4,0.6-0.7,0.7L18.3,53.1c-0.7,0.3-1.5,0.6-2.2,0.8C9.7,55.9,4,53.7,1.2,48.1c-1.4-2.8-1.6-6-0.5-9
				C1.9,36,4.3,33.4,7.4,32c0.1,0,0.2-0.1,0.3-0.1l10.3-4.5C8,23.5,7.7,12.6,8.8,9.7c1.5,1.4,5.6,2.9,5.6,2.9s7.8-6.3,7.8-6.4
				c-0.6,2.5-0.4,5.1,0.9,7.6c2.1,4.1,4.6,7.6,9.1,7.6L79,1.6c2.5-1.1,5.2-1.2,7.7-0.2C89.2,2.3,91.2,4.2,92.3,6.6z M20.4,26.3
				c4.4-2,7.8-3.7,7.8-3.7s-6.8-2.4-8.2-11.7c-3.2,3-4.9,4.2-4.9,4.2s-2.9-1.4-4.6-2.2C10.5,17.8,12.1,23.1,20.4,26.3z M52.6,15.8
				L46,18.6c3.1,0.8,11.8,7.1,6.9,17.3l6.7-3C64.6,22.7,58,17.1,52.6,15.8z M43.3,19.5L14.6,31.7c2.6,0.8,4.9,2.7,6.1,5.4
				c0.9,2,1,4.2,0.2,6.3L52.2,30c-0.1-1.4-0.5-2.9-1.1-4.3C49.3,22.4,46.6,20.2,43.3,19.5z M17.2,50.9l33.3-14.2
				c0.7-1.2,1.2-2.5,1.4-3.8L16.3,48c-1.6,0.7-3.4,0.7-5.1,0.1c-1.7-0.7-3.1-1.9-3.8-3.6c-0.3-0.6,0-1.4,0.6-1.6L18.3,38
				c-1.7-3.7-6.1-5.4-9.9-3.7C5.9,35.4,4,37.5,3.1,40c-0.9,2.4-0.7,4.8,0.4,7C6,52.1,11.2,53.5,17.2,50.9z M18.9,40.5l-8.5,4
				c0.5,0.5,1.1,1,1.8,1.2c1.1,0.4,2.3,0.4,3.3-0.1c1.4-0.6,2.5-1.7,3-3.2C18.7,41.8,18.9,41.2,18.9,40.5z M61.8,31.8l18-7.7
				c-1.4-0.3-2.6-0.8-3.8-1.6L63.3,28C63,29.4,62.5,30.7,61.8,31.8z M63.4,25.2l23.7-10.1c2.9-1.3,4.2-4.7,2.9-7.5
				c-1.7-3.8-6.2-5.5-10-3.8L54.4,14.7c3.4,0.7,6.1,2.9,7.8,6.3C62.9,22.4,63.3,23.8,63.4,25.2z"/>
		</g>
	</g>
</g>
</svg>
