<?xml version="1.0" encoding="utf-8"?>
<!-- Generator: Adobe Illustrator 21.0.2, SVG Export Plug-In . SVG Version: 6.00 Build 0)  -->
<svg version="1.1" id="Layer_1" xmlns="http://www.w3.org/2000/svg" xmlns:xlink="http://www.w3.org/1999/xlink" x="0px" y="0px"
	 viewBox="0 0 103 77" style="enable-background:new 0 0 103 77;" xml:space="preserve">
<style type="text/css">
	.st0{fill:#FFFFFF;fill-opacity:1.000000e-02;}
	.st1{fill:#FFFEED;}
	.st2{fill:#409AF7;}
</style>
<title>wireframes</title>
<desc>Created with Sketch.</desc>
<g id="Page-1">
	<g id="wireframes">
		<path id="Shape-Copy-2" class="st0" d="M102.2,75.2V1.8c0-1-0.7-1.8-1.7-1.8h-98C1.7,0,0.9,0.8,0.9,1.8v73.5c0,1,0.7,1.8,1.7,1.8
			h98C101.5,77,102.2,76.2,102.2,75.2z"/>
		<path id="Shape-Copy-2_1_" class="st1" d="M82.2,73.6V4.7c0-0.9-0.7-1.7-1.7-1.7h-58c-0.9,0-1.7,0.7-1.7,1.7v68.8
			c0,0.9,0.7,1.7,1.7,1.7h58C81.5,75.2,82.2,74.5,82.2,73.6z"/>
		<path id="Shape-Copy-3" class="st2" d="M36.2,49h37.5c0.9,0,1.6-0.7,1.6-1.6V19.8c0-0.9-0.7-1.6-1.6-1.6H36.2
			c-0.9,0-1.6,0.7-1.6,1.6v27.6C34.5,48.3,35.3,49,36.2,49z"/>
		<path id="Shape" d="M31.3,46.4h40.4c1,0,1.8-0.8,1.8-1.8V14.9c0-1-0.8-1.8-1.8-1.8H31.3c-1,0-1.8,0.8-1.8,1.8v29.8
			C29.5,45.6,30.3,46.4,31.3,46.4z M54.5,29.8l15.5-11.4v22.8L54.5,29.8z M66.4,42.9H36.6l14.9-10.9L66.4,42.9z M51.5,27.6
			L36.6,16.6h29.7L51.5,27.6z M48.5,29.8L33.1,41.1V18.4L48.5,29.8z"/>
		<path id="Shape_1_" d="M83.9,74.8V2.2c0-1-0.8-1.8-1.8-1.8H20.9c-1,0-1.8,0.8-1.8,1.8v72.6c0,1,0.8,1.8,1.8,1.8h61.2
			C83.1,76.6,83.9,75.8,83.9,74.8z M80.3,73.1H22.7V3.9h57.7V73.1z"/>
		<rect id="Rectangle-path" x="29.5" y="53.4" width="43.9" height="3.5"/>
		<rect id="Rectangle-path_1_" x="29.5" y="62.1" width="43.9" height="3.5"/>
	</g>
</g>
</svg>
