<?xml version="1.0" encoding="utf-8"?>
<!-- Generator: Adobe Illustrator 22.1.0, SVG Export Plug-In . SVG Version: 6.00 Build 0)  -->
<svg version="1.1" id="Layer_1" xmlns="http://www.w3.org/2000/svg" xmlns:xlink="http://www.w3.org/1999/xlink" x="0px" y="0px"
	 width="143.9px" height="44.6px" viewBox="0 0 143.9 44.6" style="enable-background:new 0 0 143.9 44.6;" xml:space="preserve">
<style type="text/css">
	.st0{display:none;}
	.st1{display:inline;fill:#2F383A;}
	.st2{fill:#2F383A;}
</style>
<g>
	<g class="st0">
		<path class="st1" d="M41,22.8h-1.4L29.5,3.7v26.7h-1.3V1.3h1.4L41,22.8z M30.8,7.9l1.3,2.4v20.1h-1.3V7.9z M43.9,22.8h-1.4
			L31.1,1.3h1.4L43.9,22.8z M33.3,12.7l1.3,2.4v15.3h-1.3V12.7z M56.8,3.7L46.7,22.8h-1.4L34,1.3h1.4L46,21.4L56.6,1.3h1.4v29.1
			h-1.3V3.7z M35.9,17.5l1.3,2.4v10.5h-1.3V17.5z M44.3,16.4l-0.7-1.3l7.3-13.8h1.4L44.3,16.4z M45.8,19.2l-0.7-1.3l8.7-16.6h1.4
			L45.8,19.2z M49.2,19.8l1.3-2.4v13h-1.3V19.8z M51.8,14.9l1.3-2.4v17.9h-1.3V14.9z M54.3,10.1l1.3-2.4v22.7h-1.3V10.1z"/>
		<path class="st1" d="M72,21.7h7.3c1.3,0,2.5-0.2,3.6-0.7s2.1-1.2,3-2c0.8-0.8,1.5-1.9,2-3.1s0.8-2.5,0.8-3.9
			c0-1.6-0.4-3.2-1.3-4.6s-2-2.6-3.5-3.5c-1.4-0.9-3-1.3-4.6-1.3H63.4v27.8h-1.3V1.3h17.2c1.9,0,3.6,0.5,5.3,1.5
			c1.6,1,2.9,2.3,3.9,3.9s1.5,3.4,1.5,5.3c0,1.7-0.3,3.2-0.9,4.6s-1.3,2.6-2.3,3.5s-2.1,1.6-3.4,2.2s-2.6,0.8-4.1,0.8H72V21.7z
			 M72,19.1h7.3c1.2,0,2.3-0.3,3.4-0.9s1.9-1.4,2.5-2.6c0.6-1.1,1-2.4,1-3.8c0-1.8-0.7-3.4-2.1-4.8c-1.4-1.4-3-2.1-4.8-2.1H65.9
			v25.3h-1.3V3.8h14.7c1.4,0,2.8,0.4,4,1.1s2.3,1.8,3,3s1.1,2.6,1.1,4c0,1.6-0.4,3-1.1,4.4s-1.7,2.3-3,3s-2.6,1.1-4,1.1H72V19.1z
			 M72,16.6h7.3c1.2,0,2.2-0.4,3.1-1.2s1.3-2,1.3-3.5c0-1.1-0.4-2.1-1.3-3s-1.9-1.3-3-1.3H68.5v22.8h-1.3v-24h12.1
			c1.5,0,2.8,0.6,3.9,1.7s1.7,2.4,1.7,3.9c0,1.8-0.5,3.2-1.6,4.3s-2.4,1.6-4,1.6H72V16.6z M71,30.4h-1.3V8.9h9.6
			c0.8,0,1.5,0.3,2.2,0.9s0.9,1.3,0.9,2.1c0,2.3-1,3.4-3.1,3.4H72v-1.3h7.3c0.6,0,1-0.2,1.3-0.5s0.5-0.9,0.5-1.7
			c0-0.5-0.2-0.9-0.5-1.3s-0.8-0.5-1.3-0.5H71V30.4z"/>
		<path class="st1" d="M105.2,12.7h-2.1c-0.9,0-1.6-0.2-2-0.7s-0.6-1.1-0.6-1.8c0-1.7,1.3-2.5,3.8-2.5c2.4,0,4.1,0.4,5.3,1.1l-1,0.8
			c-0.8-0.4-2.3-0.6-4.3-0.6c-1,0-1.7,0.1-2,0.3s-0.5,0.5-0.5,0.9s0.1,0.7,0.3,0.9s0.5,0.3,1,0.3h2.2c1.6,0,3,0.3,4.3,0.8
			s2.3,1.3,3.1,2.2s1.4,2,1.9,3.2s0.7,2.5,0.7,3.9c0,1.1-0.2,2.2-0.5,3.2s-0.8,1.9-1.4,2.8s-1.4,1.6-2.3,2.2s-2,1.1-3.2,1.4
			s-2.6,0.5-4,0.5c-2.3,0-4.4-0.3-6.4-1s-3.6-1.6-4.9-2.9l1-0.8c1.2,1.1,2.7,1.9,4.5,2.5s3.7,0.9,5.8,0.9c1.6,0,3.1-0.2,4.4-0.7
			s2.4-1.1,3.2-1.9s1.5-1.7,1.9-2.8s0.7-2.2,0.7-3.4c0-1.6-0.3-3.1-1-4.4s-1.7-2.4-3-3.2S107.1,12.7,105.2,12.7z M103.1,19h1.9
			c0.9,0,1.6,0.2,2,0.7s0.6,1.1,0.6,1.8c0,1.7-1.3,2.5-3.8,2.5c-2.4,0-4.2-0.4-5.4-1.1l1-0.8c0.8,0.4,2.3,0.6,4.3,0.6
			c1,0,1.7-0.1,2-0.3s0.5-0.5,0.5-0.9c0-0.4-0.1-0.7-0.3-0.9s-0.5-0.3-1.1-0.3h-1.9c-1.6,0-3.1-0.3-4.4-0.8s-2.4-1.3-3.2-2.2
			s-1.5-2-1.9-3.2s-0.7-2.5-0.7-3.9c0-1.1,0.2-2.2,0.5-3.2s0.8-1.9,1.4-2.8s1.4-1.6,2.3-2.2s2-1.1,3.2-1.4s2.6-0.5,4-0.5
			c2.3,0,4.4,0.3,6.3,1s3.6,1.6,4.9,2.9l-1,0.8c-1.2-1.1-2.7-1.9-4.5-2.5s-3.7-0.9-5.8-0.9c-1.6,0-3.1,0.2-4.4,0.7s-2.4,1.1-3.2,1.9
			s-1.5,1.7-1.9,2.8s-0.7,2.2-0.7,3.4c0,1.7,0.3,3.1,1,4.5s1.7,2.4,3.1,3.2S101.2,19,103.1,19z M103.1,13.9h2c2.4,0,4.2,0.7,5.6,2.2
			s2,3.3,2,5.4c0,2.2-0.8,4-2.3,5.4s-3.7,2.2-6.6,2.2c-1.9,0-3.6-0.3-5.3-0.8s-3-1.2-4.1-2.2l1-0.8c1,0.8,2.2,1.4,3.6,1.8
			s3,0.7,4.7,0.7c2.5,0,4.4-0.6,5.7-1.8s2-2.7,2-4.6c0-1.8-0.5-3.3-1.6-4.5s-2.7-1.8-4.7-1.8h-2c-1.7,0-3-0.5-3.8-1.4
			S98,11.6,98,10.1s0.5-2.7,1.6-3.7s2.7-1.4,4.8-1.4c1.5,0,2.9,0.2,4.1,0.5s2.3,0.8,3.2,1.5l-1,0.8c-1.5-1-3.6-1.5-6.3-1.5
			c-1.8,0-3.1,0.3-3.9,1s-1.2,1.6-1.2,2.8c0,1.1,0.3,2.1,0.9,2.8S101.7,13.9,103.1,13.9z M103.1,16.5h1.9c1.7,0,3,0.5,3.8,1.4
			s1.3,2.2,1.3,3.6c0,1.5-0.5,2.7-1.6,3.7s-2.7,1.4-4.8,1.4c-1.5,0-2.9-0.2-4.2-0.5s-2.3-0.8-3.2-1.5l1-0.8c1.5,1,3.6,1.5,6.3,1.5
			c1.8,0,3.1-0.3,3.9-1s1.2-1.6,1.2-2.8s-0.3-2.1-0.9-2.8s-1.6-1-3-1h-1.9c-2.4,0-4.3-0.7-5.6-2.2s-2-3.2-2-5.4s0.8-4,2.3-5.4
			s3.7-2.2,6.6-2.2c1.9,0,3.6,0.3,5.2,0.8s3,1.2,4.1,2.2l-1,0.8c-1-0.8-2.2-1.4-3.6-1.8s-3-0.7-4.7-0.7c-2.5,0-4.4,0.6-5.7,1.8
			s-2,2.7-2,4.6c0,1.8,0.6,3.4,1.7,4.5S101.1,16.5,103.1,16.5z"/>
	</g>
</g>
<g>
	<path class="st2" d="M31.2,40.5l-2.8-7.7h1l2.3,6.5h0l2.3-6.5h1l-2.8,7.7H31.2z"/>
	<path class="st2" d="M35.8,33.4c0-0.3,0.3-0.6,0.6-0.6c0.3,0,0.6,0.3,0.6,0.6c0,0.3-0.3,0.6-0.6,0.6C36,33.9,35.8,33.7,35.8,33.4z
		 M35.9,34.9h0.9v5.6h-0.9V34.9z"/>
	<path class="st2" d="M38,37.7c0-1.7,1-2.9,2.4-2.9c0.8,0,1.4,0.4,1.8,1h0v-3.1h0.9v7.7h-0.9v-0.9h0c-0.4,0.6-1,1-1.8,1
		C39,40.6,38,39.5,38,37.7z M39,37.7c0,1.3,0.6,2.1,1.6,2.1c1,0,1.6-0.8,1.6-2.1c0-1.2-0.6-2.1-1.6-2.1C39.6,35.7,39,36.5,39,37.7z"
		/>
	<path class="st2" d="M49.2,38.9c-0.2,1-1.1,1.7-2.3,1.7c-1.6,0-2.6-1.1-2.6-2.9c0-1.7,1-2.9,2.5-2.9c1.5,0,2.4,1.1,2.4,2.8V38h-4
		V38c0,1.1,0.6,1.8,1.6,1.8c0.7,0,1.2-0.4,1.4-0.9H49.2z M45.2,37.2h3c0-0.9-0.6-1.6-1.5-1.6C45.9,35.6,45.3,36.3,45.2,37.2z"/>
	<path class="st2" d="M50.1,37.7c0-1.8,1-2.9,2.6-2.9c1.5,0,2.6,1.1,2.6,2.9c0,1.8-1,2.9-2.6,2.9C51.1,40.6,50.1,39.5,50.1,37.7z
		 M54.3,37.7c0-1.3-0.6-2.1-1.6-2.1S51,36.4,51,37.7c0,1.3,0.6,2.1,1.6,2.1S54.3,39,54.3,37.7z"/>
	<path class="st2" d="M63.2,38.3h-3.1l-0.8,2.2h-1l2.8-7.7h1l2.8,7.7h-1L63.2,38.3z M60.4,37.5h2.5L61.7,34h0L60.4,37.5z"/>
	<path class="st2" d="M65.6,37.7c0-1.7,1-2.9,2.4-2.9c0.8,0,1.4,0.4,1.8,1h0v-3.1h0.9v7.7h-0.9v-0.9h0c-0.4,0.6-1,1-1.8,1
		C66.6,40.6,65.6,39.5,65.6,37.7z M66.5,37.7c0,1.3,0.6,2.1,1.6,2.1c1,0,1.6-0.8,1.6-2.1c0-1.2-0.6-2.1-1.6-2.1
		C67.2,35.7,66.5,36.5,66.5,37.7z"/>
	<path class="st2" d="M74.1,34.8c1.2,0,2,0.7,2.1,1.7h-0.9c-0.1-0.6-0.5-0.9-1.2-0.9c-0.7,0-1.1,0.3-1.1,0.8c0,0.4,0.3,0.6,0.9,0.8
		l0.9,0.2c1.1,0.3,1.5,0.7,1.5,1.5c0,1-0.9,1.7-2.2,1.7c-1.3,0-2.1-0.7-2.2-1.7h0.9c0.1,0.6,0.5,0.9,1.3,0.9s1.2-0.3,1.2-0.8
		c0-0.4-0.2-0.6-0.9-0.8L73.6,38c-1-0.3-1.6-0.7-1.6-1.5C72,35.5,72.9,34.8,74.1,34.8z"/>
	<path class="st2" d="M86.7,40.5v-5.9h0l-2.5,5.9h-0.8L81,34.6h0v5.9H80v-7.7h1.1l2.7,6.5h0l2.7-6.5h1.1v7.7H86.7z"/>
	<path class="st2" d="M88.9,37.7c0-1.8,1-2.9,2.6-2.9c1.5,0,2.6,1.1,2.6,2.9c0,1.8-1,2.9-2.6,2.9C90,40.6,88.9,39.5,88.9,37.7z
		 M93.1,37.7c0-1.3-0.6-2.1-1.6-2.1s-1.6,0.7-1.6,2.1c0,1.3,0.6,2.1,1.6,2.1S93.1,39,93.1,37.7z"/>
	<path class="st2" d="M95,37.7c0-1.7,1-2.9,2.4-2.9c0.8,0,1.4,0.4,1.8,1h0v-3.1h0.9v7.7h-0.9v-0.9h0c-0.4,0.6-1,1-1.8,1
		C95.9,40.6,95,39.5,95,37.7z M95.9,37.7c0,1.3,0.6,2.1,1.6,2.1c1,0,1.6-0.8,1.6-2.1c0-1.2-0.6-2.1-1.6-2.1
		C96.5,35.7,95.9,36.5,95.9,37.7z"/>
	<path class="st2" d="M106.1,40.5h-0.9v-0.9h0c-0.3,0.6-0.9,1-1.8,1c-1.2,0-1.9-0.8-1.9-2v-3.6h0.9v3.4c0,0.9,0.4,1.4,1.3,1.4
		c0.9,0,1.4-0.6,1.4-1.6v-3.3h0.9V40.5z"/>
	<path class="st2" d="M107.5,32.8h0.9v7.7h-0.9V32.8z"/>
	<path class="st2" d="M114.5,38.9c-0.2,1-1.1,1.7-2.3,1.7c-1.6,0-2.6-1.1-2.6-2.9c0-1.7,1-2.9,2.5-2.9c1.5,0,2.4,1.1,2.4,2.8V38h-4
		V38c0,1.1,0.6,1.8,1.6,1.8c0.7,0,1.2-0.4,1.4-0.9H114.5z M110.6,37.2h3c0-0.9-0.6-1.6-1.5-1.6C111.3,35.6,110.7,36.3,110.6,37.2z"
		/>
</g>
<g>
	<path class="st2" d="M57,27.5h-4.5V12.9l-7.9,13.9c-0.2,0.4-0.5,0.6-0.8,0.8s-0.7,0.3-1.1,0.3c-0.4,0-0.7-0.1-1.1-0.3
		c-0.3-0.2-0.6-0.4-0.8-0.8L33,12.9v14.6h-4.4V4.9c0-0.5,0.2-1,0.5-1.4c0.3-0.4,0.7-0.7,1.2-0.8c0.2-0.1,0.5-0.1,0.7-0.1
		c0.2,0,0.5,0.1,0.7,0.2c0.2,0.1,0.4,0.2,0.6,0.4c0.2,0.2,0.3,0.3,0.5,0.6l10.1,17.6L52.9,3.8C53.1,3.3,53.5,3,54,2.8
		c0.5-0.2,0.9-0.2,1.4-0.1c0.5,0.1,0.9,0.4,1.2,0.8C56.9,4,57,4.4,57,4.9V27.5z"/>
	<path class="st2" d="M87.3,13.3c0,1-0.1,1.9-0.4,2.7c-0.3,0.8-0.6,1.5-1,2.1c-0.4,0.6-0.9,1.1-1.5,1.6c-0.6,0.4-1.1,0.8-1.8,1.1
		s-1.2,0.5-1.8,0.6c-0.6,0.1-1.2,0.2-1.8,0.2h-10v-4.4h10c0.6,0,1.1-0.2,1.5-0.4c0.5-0.2,0.9-0.4,1.2-0.8c0.3-0.3,0.6-0.7,0.8-1.2
		c0.2-0.4,0.3-1,0.3-1.5v-2c-0.1-0.6-0.2-1.1-0.4-1.5c-0.2-0.5-0.4-0.9-0.7-1.2c-0.3-0.3-0.7-0.6-1.1-0.8c-0.4-0.2-1-0.3-1.5-0.3
		h-10c-0.6,0-1,0.2-1.4,0.5c-0.3,0.3-0.5,0.8-0.5,1.3v18.3h-4.4V9.3c0-1.1,0.2-2.1,0.6-2.9c0.4-0.8,0.9-1.4,1.6-1.9
		c0.6-0.5,1.3-0.8,2-1.1c0.7-0.2,1.4-0.3,2-0.3h10c1,0,1.9,0.1,2.7,0.4c0.8,0.3,1.5,0.6,2.1,1c0.6,0.4,1.1,0.9,1.6,1.5
		c0.4,0.6,0.8,1.1,1.1,1.8c0.3,0.6,0.5,1.2,0.6,1.8c0.1,0.6,0.2,1.2,0.2,1.8V13.3z"/>
	<path class="st2" d="M115.4,20.3c0,0.9-0.1,1.7-0.3,2.4c-0.2,0.7-0.5,1.3-0.9,1.9c-0.4,0.5-0.8,1-1.3,1.4c-0.5,0.4-1,0.7-1.5,0.9
		c-0.5,0.2-1.1,0.4-1.6,0.5c-0.5,0.1-1.1,0.2-1.5,0.2H91.1v-4.4h17.1c0.9,0,1.5-0.3,2-0.8c0.5-0.5,0.7-1.2,0.7-2
		c0-0.4-0.1-0.8-0.2-1.1c-0.1-0.3-0.3-0.6-0.5-0.9c-0.2-0.3-0.5-0.4-0.9-0.6c-0.3-0.1-0.7-0.2-1.1-0.2H98c-0.7,0-1.5-0.1-2.3-0.4
		c-0.8-0.3-1.6-0.7-2.3-1.2c-0.7-0.6-1.3-1.3-1.8-2.2s-0.7-2.1-0.7-3.4s0.2-2.5,0.7-3.4s1.1-1.7,1.8-2.2c0.7-0.6,1.5-1,2.3-1.2
		C96.5,3.2,97.3,3,98,3h15.1v4.4H98c-0.8,0-1.5,0.3-2,0.8s-0.7,1.2-0.7,2c0,0.9,0.2,1.5,0.7,2c0.5,0.5,1.1,0.7,2,0.7h10.2h0
		c0.5,0,1,0.1,1.5,0.2c0.5,0.1,1.1,0.3,1.6,0.6c0.5,0.3,1,0.6,1.5,0.9c0.5,0.4,0.9,0.8,1.3,1.4c0.4,0.5,0.7,1.2,0.9,1.8
		C115.3,18.7,115.4,19.5,115.4,20.3z"/>
</g>
</svg>
