<?xml version="1.0" encoding="utf-8"?>
<!-- Generator: Adobe Illustrator 21.0.2, SVG Export Plug-In . SVG Version: 6.00 Build 0)  -->
<svg version="1.1"
	 id="Layer_1" xmlns:cc="http://creativecommons.org/ns#" xmlns:dc="http://purl.org/dc/elements/1.1/" xmlns:inkscape="http://www.inkscape.org/namespaces/inkscape" xmlns:rdf="http://www.w3.org/1999/02/22-rdf-syntax-ns#" xmlns:sodipodi="http://sodipodi.sourceforge.net/DTD/sodipodi-0.dtd" xmlns:svg="http://www.w3.org/2000/svg"
	 xmlns="http://www.w3.org/2000/svg" xmlns:xlink="http://www.w3.org/1999/xlink" x="0px" y="0px" viewBox="0 0 283.3 283.3"
	 style="enable-background:new 0 0 283.3 283.3;" xml:space="preserve">
<style type="text/css">
	.st0{fill:#409AF7;stroke:#124A9E;stroke-miterlimit:10;}
	.st1{fill:#124A9E;}
	.st2{enable-background:new    ;}
	.st3{fill:#FFFFFF;}
	.st4{fill:#ED1E24;}
</style>
<g>
	<g>
		<g>
			<rect x="7.7" y="155" class="st0" width="120.6" height="120.6"/>
		</g>
		<g>
			<path class="st1" d="M128.3,283.3H7.7c-4.6,0-7.7-3.1-7.7-7.7V155c0-4.6,3.1-7.7,7.7-7.7h120.6c4.6,0,7.7,3.1,7.7,7.7v120.6
				C136,280.2,132.9,283.3,128.3,283.3z M15.5,267.8H119V164.3H15.5V267.8z"/>
		</g>
	</g>
	<g>
		<g>
			<g>
				<rect x="7.7" y="9.3" class="st0" width="120.6" height="120.6"/>
			</g>
		</g>
		<g>
			<g>
				<path class="st1" d="M128.3,136H7.7c-4.6,0-7.7-3.1-7.7-7.7V7.7C0,3.1,3.1,0,7.7,0h120.6c4.6,0,7.7,3.1,7.7,7.7v120.6
					C136,132.9,131.4,136,128.3,136z M15.5,120.6H119V17H15.5V120.6z"/>
			</g>
		</g>
	</g>
	<g>
		<g>
			<g>
				<rect x="155" y="155" class="st0" width="120.6" height="120.6"/>
			</g>
		</g>
		<g>
			<path class="st1" d="M275.6,283.3H155c-4.6,0-7.7-3.1-7.7-7.7V155c0-4.6,3.1-7.7,7.7-7.7h120.6c4.6,0,7.7,3.1,7.7,7.7v120.6
				C283.3,280.2,278.6,283.3,275.6,283.3z M162.7,267.8h103.6V164.3H162.7V267.8z"/>
		</g>
	</g>
	<g class="st2">
		<path class="st3" d="M30.5,33.4h1l36.5,37.7l36.7-37.7h1v69.9h-15V66.8L68.2,90.5h-0.6L45.4,67v36.3h-15V33.4z"/>
	</g>
	<g class="st2">
		<path class="st3" d="M44.2,181.9h26c20.2,0,29.2,7.2,29.2,21.6c0,15.2-11,22.6-30.1,22.6h-9.5v23H44.2V181.9z M69.9,214.1
			c8.9,0,13.1-3.2,13.1-10.1c0-6.8-4.1-9.8-13.1-9.8H59.7v19.9H69.9z"/>
	</g>
	<g class="st2">
		<path class="st3" d="M187.1,181.7H209c22.7,0,38.3,11.3,38.3,33.4c0,22.1-15.6,33.8-38.3,33.8h-21.9V181.7z M208.5,236
			c15.2,0,23.1-6.5,23.1-20.8s-8-20.6-23.1-20.6h-5.9V236H208.5z"/>
	</g>
	<g>
		<g>
			<g>
				<g>
					<rect x="155" y="9.3" class="st4" width="120.6" height="120.6"/>
				</g>
				<g>
					<path class="st1" d="M275.6,136H155c-4.6,0-7.7-3.1-7.7-7.7V7.7c0-4.6,3.1-7.7,7.7-7.7h120.6c4.6,0,7.7,3.1,7.7,7.7v120.6
						C283.3,132.9,280.2,136,275.6,136z M162.7,120.6h103.6V17H162.7V120.6z"/>
				</g>
			</g>
		</g>
		<polygon class="st3" points="203.4,83.5 174.9,55.3 162.8,68.1 203.6,108 267.6,43.1 255.2,30.9 		"/>
	</g>
</g>
</svg>
