<?xml version="1.0" encoding="utf-8"?>
<!-- Generator: Adobe Illustrator 21.0.2, SVG Export Plug-In . SVG Version: 6.00 Build 0)  -->
<svg version="1.1"
	 id="Layer_1" xmlns:cc="http://creativecommons.org/ns#" xmlns:dc="http://purl.org/dc/elements/1.1/" xmlns:inkscape="http://www.inkscape.org/namespaces/inkscape" xmlns:rdf="http://www.w3.org/1999/02/22-rdf-syntax-ns#" xmlns:sodipodi="http://sodipodi.sourceforge.net/DTD/sodipodi-0.dtd" xmlns:svg="http://www.w3.org/2000/svg"
	 xmlns="http://www.w3.org/2000/svg" xmlns:xlink="http://www.w3.org/1999/xlink" x="0px" y="0px" viewBox="0 0 481.9 119.2"
	 style="enable-background:new 0 0 481.9 119.2;" xml:space="preserve">
<style type="text/css">
	.st0{fill:#409AF7;stroke:#124A9E;stroke-miterlimit:10;}
	.st1{fill:#124A9E;}
	.st2{enable-background:new    ;}
	.st3{fill:#FFFFFF;}
	.st4{fill:#ED1E24;}
</style>
<g>
	<path d="M0,0h1.6l60.8,62.9L123.5,0h1.6v116.5h-25V55.7L62.9,95.2h-1L25,56v60.5H0V0z"/>
	<path d="M140.2,6.1V4.5H168l30.9,65.1h0.2l30.4-65.1h25.9v1.6l-56.2,113.1h-1.6L140.2,6.1z"/>
	<path d="M270.4,4.5h43.4c33.6,0,48.6,12,48.6,36c0,25.3-18.4,37.6-50.2,37.6h-15.8v38.4h-25.9V4.5z M313.3,58.2
		c14.9,0,21.8-5.3,21.8-16.8c0-11.4-6.9-16.3-21.8-16.3h-17v33.1H313.3z"/>
	<path d="M381.6,4.5h36.5c37.8,0,63.8,18.9,63.8,55.7s-25.9,56.3-63.8,56.3h-36.5V4.5z M417.3,95c25.3,0,38.6-10.9,38.6-34.7
		s-13.3-34.4-38.6-34.4h-9.8V95H417.3z"/>
</g>
</svg>
