<?xml version="1.0" encoding="UTF-8"?>
<svg width="443px" height="499px" viewBox="0 0 443 499" version="1.1" xmlns="http://www.w3.org/2000/svg" xmlns:xlink="http://www.w3.org/1999/xlink">
    <!-- Generator: Sketch 50.2 (55047) - http://www.bohemiancoding.com/sketch -->
    <title>noun_purpose_1587900</title>
    <desc>Created with Sketch.</desc>
    <defs></defs>
    <g id="Page-1" stroke="none" stroke-width="1" fill="none" fill-rule="evenodd">
        <g id="noun_purpose_1587900" transform="translate(0.000000, -1.000000)" fill="#9DAEA7" fill-rule="nonzero">
            <path d="M435.2,39.6 C439.3,39.6 442.7,36.2 442.7,32.1 C442.7,28 439.3,24.6 435.2,24.6 L429.4,24.6 L437,17.1 C440,14.2 440,9.4 437.1,6.5 C434.2,3.5 429.4,3.5 426.5,6.4 L418.6,14.2 L418.4,8.3 C418.3,4.2 414.8,0.9 410.7,1 C406.6,1.1 403.3,4.6 403.4,8.7 L404,28.4 L392.1,40.1 C344,-3.9 271.4,-7.8 218.9,30.8 C213.5,30.2 208.1,29.9 202.6,29.8 L201.4,29.8 C115.5,29.7 44.6,96.8 39.8,182.5 C39.5,187.8 38.3,192.9 36.3,197.8 L2,278.9 C-3.3,291.3 2.5,305.6 14.9,310.9 C16.7,311.7 18.5,312.2 20.4,312.5 L22,312.8 L36.6,384.6 C41.5,408.7 65,424.3 89.1,419.4 C90.6,419.1 92,418.7 93.5,418.3 L135.4,405.2 L162.7,499.9 L328.1,432.9 L328.1,346.5 C328.2,320.7 333.3,295.2 343.1,271.3 C397.4,253.1 436.7,201.7 436.7,141.3 C436.7,108 424.6,75.8 402.5,50.9 L414,39.6 L435.2,39.6 Z M313.1,346.4 L313.1,422.7 L172.5,479.6 L145.6,386.1 L89,403.8 C73.4,408.6 56.9,399.9 52,384.4 C51.7,383.5 51.5,382.5 51.3,381.5 L34.7,299.6 L22.9,297.7 C17.8,296.9 14.3,292 15.2,286.9 C15.3,286.2 15.5,285.5 15.8,284.8 L50.2,203.7 C52.9,197.3 54.5,190.4 54.9,183.4 C59.2,105.6 123.6,44.8 201.5,44.9 L202.6,44.9 C177.1,70.5 162.8,105.2 162.8,141.4 C162.8,217 224.3,278.4 299.8,278.4 C308.4,278.4 316.9,277.6 325.4,276 C317.2,298.5 313.1,322.4 313.1,346.4 Z M421.8,141.3 C421.9,208.8 367.2,263.5 299.8,263.6 C232.4,263.7 177.6,209 177.5,141.6 C177.4,74.2 232,19.3 299.5,19.2 C329.8,19.2 358.9,30.4 381.4,50.6 L362.6,69.1 C322.6,34.3 262,38.4 227.2,78.4 C192.4,118.4 196.5,178.9 236.5,213.8 C276.5,248.7 337,244.5 371.9,204.5 C402.9,168.9 403.5,116 373.1,79.8 L391.9,61.3 C411.2,83.5 421.8,111.9 421.8,141.3 Z M294.4,146.5 C297.3,149.5 302,149.5 305,146.6 C305,146.6 305,146.6 305,146.6 L328.7,123.3 C338.6,139.3 333.7,160.4 317.7,170.3 C301.7,180.2 280.6,175.3 270.7,159.3 C260.8,143.3 265.7,122.2 281.7,112.3 C292.9,105.3 307.1,105.5 318.2,112.6 L294.5,135.9 C291.5,138.8 291.5,143.6 294.4,146.5 C294.4,146.5 294.4,146.5 294.4,146.5 Z M329.1,102 C307.3,85.7 276.4,90.1 260.1,111.9 C243.8,133.7 248.2,164.6 270,180.9 C291.8,197.2 322.7,192.8 339,171 C351.9,153.8 352.2,130.2 339.6,112.7 L362.3,90.4 C390.5,125 385.3,176 350.7,204.2 C316.1,232.4 265.1,227.2 236.9,192.6 C208.7,158 213.9,107 248.5,78.8 C278.7,54.2 322.1,54.6 351.8,79.7 L329.1,102 Z" id="Shape"></path>
        </g>
    </g>
</svg>