<?xml version="1.0" encoding="UTF-8"?>
<svg width="126px" height="120px" viewBox="0 0 126 120" version="1.1" xmlns="http://www.w3.org/2000/svg" xmlns:xlink="http://www.w3.org/1999/xlink">
    <!-- Generator: Sketch 50.2 (55047) - http://www.bohemiancoding.com/sketch -->
    <title>Group 2</title>
    <desc>Created with Sketch.</desc>
    <defs></defs>
    <g id="Page-1" stroke="none" stroke-width="1" fill="none" fill-rule="evenodd">
        <g id="Group-2" fill="#9DAEA7" fill-rule="nonzero">
            <g id="noun_script-development_1907192">
                <path d="M90.6,119.1 L2.7,119.1 C1.6,119.1 0.7,118.2 0.7,117.1 L0.7,2.9 C0.7,1.8 1.6,0.9 2.7,0.9 L71.2,0.9 C72.3,0.9 73.2,1.8 73.2,2.9 L73.2,18.5 L90.5,18.5 C91.6,18.5 92.5,19.4 92.5,20.5 L92.5,38 C92.5,39.1 91.6,40 90.5,40 C89.4,40 88.5,39.1 88.5,38 L88.5,22.5 L71.3,22.5 C70.2,22.5 69.3,21.6 69.3,20.5 L69.3,4.9 L4.7,4.9 L4.7,115.1 L88.6,115.1 L88.6,97.7 C88.6,96.6 89.5,95.7 90.6,95.7 C91.7,95.7 92.6,96.6 92.6,97.7 L92.6,117.1 C92.6,118.2 91.7,119.1 90.6,119.1 Z" id="Shape"></path>
                <path d="M90.6,21 C90.1,21 89.6,20.8 89.3,20.5 L71.5,4.4 C70.7,3.7 70.6,2.4 71.4,1.6 C72.1,0.8 73.4,0.7 74.2,1.5 L91.9,17.6 C92.7,18.3 92.8,19.6 92,20.4 C91.7,20.7 91.1,21 90.6,21 Z" id="Shape"></path>
                <g id="Group" transform="translate(73.000000, 17.000000)">
                    <path d="M5.5,80.5 C5.2,80.5 4.9,80.4 4.6,80.3 C4.1,80 3.7,79.6 3.6,79 L0.6,66.1 C0.5,65.6 0.5,65.2 0.8,64.7 C4.7,56.9 10.9,44.9 16.9,33.3 C22.9,21.7 29.1,9.7 33,1.9 C33.2,1.4 33.7,1.1 34.2,0.9 C34.7,0.7 35.3,0.8 35.7,1 L51.4,9 C52.4,9.5 52.8,10.7 52.3,11.7 C48.4,19.5 42.1,31.5 36.1,43.1 C30.1,54.7 23.8,66.7 19.9,74.5 C19.7,74.9 19.3,75.3 18.9,75.5 L6.5,80.4 C6,80.5 5.7,80.5 5.5,80.5 Z M4.6,65.9 L6.9,75.8 L16.4,72 C20.4,64.2 26.4,52.5 32.3,41.2 C37.9,30.5 43.6,19.4 47.6,11.6 L35.5,5.5 C31.6,13.3 25.9,24.4 20.3,35.1 C14.5,46.4 8.5,58.1 4.6,65.9 Z" id="Shape"></path>
                    <path d="M17.4,75.6 C17.1,75.6 16.8,75.5 16.5,75.4 L1.6,67.7 C0.6,67.2 0.2,66 0.7,65 C1.2,64 2.4,63.6 3.4,64.1 L18.3,71.8 C19.3,72.3 19.7,73.5 19.2,74.5 C18.8,75.2 18.1,75.6 17.4,75.6 Z" id="Shape"></path>
                    <path d="M46.2590419,20.4180342 C45.9529447,20.4180342 45.6468475,20.3160018 45.3407503,20.2139694 L30.1379228,12.459507 C29.1175988,11.949345 28.7094692,10.7249562 29.2196312,9.70463225 C29.7297932,8.68430825 30.954182,8.27617866 31.974506,8.78634065 L47.1773335,16.540803 C48.1976575,17.050965 48.6057871,18.2753538 48.0956251,19.2956778 C47.6874955,20.0099046 46.9732687,20.4180342 46.2590419,20.4180342 Z" id="Shape"></path>
                </g>
                <g id="Group" transform="translate(14.000000, 22.000000)">
                    <path d="M54.9,51.8 L2.2,51.8 C1.1,51.8 0.2,50.9 0.2,49.8 C0.2,48.7 1.1,47.8 2.2,47.8 L54.9,47.8 C56,47.8 56.9,48.7 56.9,49.8 C56.9,50.9 56,51.8 54.9,51.8 Z" id="Shape"></path>
                    <path d="M54.9,28 L2.2,28 C1.1,28 0.2,27.1 0.2,26 C0.2,24.9 1.1,24 2.2,24 L54.9,24 C56,24 56.9,24.9 56.9,26 C56.9,27.1 56,28 54.9,28 Z" id="Shape"></path>
                    <path d="M54.9,75.6 L2.2,75.6 C1.1,75.6 0.2,74.7 0.2,73.6 C0.2,72.5 1.1,71.6 2.2,71.6 L54.9,71.6 C56,71.6 56.9,72.5 56.9,73.6 C56.9,74.7 56,75.6 54.9,75.6 Z" id="Shape"></path>
                    <path d="M32.7,4.1 L2.2,4.1 C1.1,4.1 0.2,3.2 0.2,2.1 C0.2,1 1.1,0.1 2.2,0.1 L32.6,0.1 C33.7,0.1 34.6,1 34.6,2.1 C34.6,3.2 33.8,4.1 32.7,4.1 Z" id="Shape"></path>
                </g>
            </g>
        </g>
    </g>
</svg>