<?xml version="1.0" encoding="utf-8"?>
<!-- Generator: Adobe Illustrator 22.1.0, SVG Export Plug-In . SVG Version: 6.00 Build 0)  -->
<svg version="1.1" id="Layer_1" xmlns="http://www.w3.org/2000/svg" xmlns:xlink="http://www.w3.org/1999/xlink" x="0px" y="0px"
	 viewBox="0 0 720 720" style="enable-background:new 0 0 720 720;" xml:space="preserve">
<style type="text/css">
	.st0{fill:url(#Rectangle-Copy_1_);}
	.st1{fill:#FFFFFF;}
	.st2{fill:#ED1E24;}
</style>
<title>day-to-day-sunrise</title>
<desc>Created with Sketch.</desc>
<g id="Page-1">
	<g id="day-to-day-sunrise">
		<g id="Group">
			
				<radialGradient id="Rectangle-Copy_1_" cx="579.6945" cy="710.2361" r="0.7071" gradientTransform="matrix(720 0 0 -720 -417020 511730)" gradientUnits="userSpaceOnUse">
				<stop  offset="0" style="stop-color:#FAFAFA"/>
				<stop  offset="1" style="stop-color:#EEEEEE"/>
			</radialGradient>
			<rect id="Rectangle-Copy" class="st0" width="720" height="720"/>
			<g id="Rectangle">
				<g>
					<rect id="path-2_2_" x="200" y="201" width="321" height="321"/>
				</g>
				<g>
					<rect id="path-2_1_" x="200" y="201" class="st1" width="321" height="321"/>
				</g>
			</g>
			<g id="Shape" transform="translate(257.000000, 274.000000)">
				<g>
					<path class="st2" d="M106.5,29c1.9,0,3.5-1.6,3.5-3.6V3.6c0-2-1.6-3.6-3.5-3.6S103,1.6,103,3.6v21.8
						C103,27.4,104.6,29,106.5,29z"/>
					<path class="st2" d="M163.5,52c0.9,0,1.8-0.3,2.5-1l20-20c1.4-1.4,1.4-3.6,0-4.9c-1.4-1.4-3.6-1.4-4.9,0l-20,20
						c-1.4,1.4-1.4,3.6,0,4.9C161.7,51.7,162.6,52,163.5,52z"/>
					<path class="st2" d="M46,51c0.7,0.7,1.6,1,2.5,1s1.8-0.3,2.5-1c1.4-1.4,1.4-3.6,0-4.9l-20-20c-1.4-1.4-3.6-1.4-4.9,0
						c-1.4,1.4-1.4,3.6,0,4.9L46,51z"/>
					<path class="st2" d="M176.3,74.9c0.6,1.3,1.9,2.1,3.3,2.1c0.5,0,0.9-0.1,1.4-0.3l9.9-4.1c1.8-0.8,2.7-2.8,1.9-4.5
						c-0.8-1.8-2.9-2.6-4.7-1.8l-9.9,4.1C176.3,71.1,175.5,73.1,176.3,74.9z"/>
					<path class="st2" d="M19.2,74.8l9.9,4C29.5,79,30,79,30.5,79c1.4,0,2.7-0.8,3.3-2.2c0.7-1.8-0.1-3.8-2-4.6l-9.9-4
						c-1.8-0.7-3.9,0.1-4.6,1.9C16.5,72,17.4,74.1,19.2,74.8z"/>
					<path class="st2" d="M71.3,32.8c0.6,1.4,1.8,2.2,3.2,2.2c0.5,0,0.9-0.1,1.4-0.3c1.8-0.8,2.6-2.9,1.8-4.7l-4.1-9.9
						c-0.8-1.8-2.8-2.6-4.5-1.9c-1.8,0.8-2.6,2.9-1.8,4.7L71.3,32.8z"/>
					<path class="st2" d="M134.2,33.8c0.4,0.2,0.9,0.2,1.3,0.2c1.4,0,2.7-0.9,3.3-2.2l3.9-9.9c0.7-1.8-0.1-3.9-1.9-4.6
						c-1.8-0.7-3.8,0.1-4.6,2l-4,9.9C131.5,30.9,132.4,33,134.2,33.8z"/>
					<path class="st2" d="M207.5,111c-9.9,0-20,0-30.2,0c0-40.5-31.1-68-71.8-68S35,70.5,35,111c-12,0-22.5,0-31.4,0
						c-1.9,0-3.5,1.6-3.5,3.5s1.6,3.5,3.5,3.5h35.2h126.4h42.3c1.9,0,3.5-1.6,3.5-3.5S209.4,111,207.5,111z M41.8,111
						c0-36.7,26.9-61,63.7-61s65.1,24.3,65.1,61C108.8,111,108.6,111.5,41.8,111z"/>
					<path class="st2" d="M190.5,130h-169c-1.9,0-3.5,1.6-3.5,3.5s1.6,3.5,3.5,3.5h169c1.9,0,3.5-1.6,3.5-3.5S192.4,130,190.5,130z"
						/>
					<path class="st2" d="M172.5,147h-134c-1.9,0-3.5,1.6-3.5,3.5s1.6,3.5,3.5,3.5h134c1.9,0,3.5-1.6,3.5-3.5S174.4,147,172.5,147z"
						/>
					<path class="st2" d="M157.5,165h-105c-1.9,0-3.5,1.6-3.5,3.5s1.6,3.5,3.5,3.5h105c1.9,0,3.5-1.6,3.5-3.5S159.4,165,157.5,165z"
						/>
				</g>
			</g>
		</g>
	</g>
</g>
</svg>
