<?xml version="1.0" encoding="utf-8"?>
<!-- Generator: Adobe Illustrator 22.1.0, SVG Export Plug-In . SVG Version: 6.00 Build 0)  -->
<svg version="1.1" id="Layer_1" xmlns="http://www.w3.org/2000/svg" xmlns:xlink="http://www.w3.org/1999/xlink" x="0px" y="0px"
	 viewBox="0 0 720 720" style="enable-background:new 0 0 720 720;" xml:space="preserve">
<style type="text/css">
	.st0{fill:url(#Rectangle-Copy_1_);}
	.st1{fill:#FFFFFF;}
	.st2{fill:#ED1E24;}
</style>
<title>miscellaneous</title>
<desc>Created with Sketch.</desc>
<g id="Page-1">
	<g id="miscellaneous">
		<g id="Group">
			
				<radialGradient id="Rectangle-Copy_1_" cx="579.6945" cy="710.2361" r="0.7071" gradientTransform="matrix(720 0 0 -720 -417020 511730)" gradientUnits="userSpaceOnUse">
				<stop  offset="0" style="stop-color:#FAFAFA"/>
				<stop  offset="1" style="stop-color:#EEEEEE"/>
			</radialGradient>
			<rect id="Rectangle-Copy" class="st0" width="720" height="720"/>
			<g id="Rectangle">
				<g>
					<rect id="path-2_2_" x="200" y="201" width="321" height="321"/>
				</g>
				<g>
					<rect id="path-2_1_" x="200" y="201" class="st1" width="321" height="321"/>
				</g>
			</g>
		</g>
		<path id="Oval-Copy-5" class="st2" d="M293.5,382.8c-15.2,0-27.5-12.3-27.5-27.5s12.3-27.5,27.5-27.5s27.5,12.3,27.5,27.5
			S308.7,382.8,293.5,382.8z M293.5,374.8c10.8,0,19.5-8.7,19.5-19.5s-8.7-19.5-19.5-19.5s-19.5,8.7-19.5,19.5
			C274,366,282.7,374.8,293.5,374.8z"/>
		<path id="Oval-Copy-4" class="st2" d="M363.5,382.8c-15.2,0-27.5-12.3-27.5-27.5s12.3-27.5,27.5-27.5s27.5,12.3,27.5,27.5
			S378.7,382.8,363.5,382.8z M363.5,374.8c10.8,0,19.5-8.7,19.5-19.5s-8.7-19.5-19.5-19.5s-19.5,8.7-19.5,19.5
			C344,366,352.7,374.8,363.5,374.8z"/>
		<path id="Oval-Copy-3" class="st2" d="M434.5,382.8c-15.2,0-27.5-12.3-27.5-27.5s12.3-27.5,27.5-27.5s27.5,12.3,27.5,27.5
			S449.7,382.8,434.5,382.8z M434.5,374.8c10.8,0,19.5-8.7,19.5-19.5s-8.7-19.5-19.5-19.5s-19.5,8.7-19.5,19.5
			C415,366,423.7,374.8,434.5,374.8z"/>
	</g>
</g>
</svg>
