<?xml version="1.0" encoding="utf-8"?>
<!-- Generator: Adobe Illustrator 22.1.0, SVG Export Plug-In . SVG Version: 6.00 Build 0)  -->
<svg version="1.1" id="Layer_1" xmlns="http://www.w3.org/2000/svg" xmlns:xlink="http://www.w3.org/1999/xlink" x="0px" y="0px"
	 viewBox="0 0 720 720" style="enable-background:new 0 0 720 720;" xml:space="preserve">
<style type="text/css">
	.st0{fill:url(#Rectangle-Copy_1_);}
	.st1{fill:#FFFFFF;}
	.st2{fill:#ED1E24;}
</style>
<title>pain-point</title>
<desc>Created with Sketch.</desc>
<g id="Page-1">
	<g id="pain-point">
		<g id="Group">
			
				<radialGradient id="Rectangle-Copy_1_" cx="579.6945" cy="710.2361" r="0.7071" gradientTransform="matrix(720 0 0 -720 -417020 511730)" gradientUnits="userSpaceOnUse">
				<stop  offset="0" style="stop-color:#FAFAFA"/>
				<stop  offset="1" style="stop-color:#EEEEEE"/>
			</radialGradient>
			<rect id="Rectangle-Copy" class="st0" width="720" height="720"/>
			<g id="Rectangle">
				<g>
					<rect id="path-2_2_" x="200" y="201" width="321" height="321"/>
				</g>
				<g>
					<rect id="path-2_1_" x="200" y="201" class="st1" width="321" height="321"/>
				</g>
			</g>
			<path id="Shape" class="st2" d="M449.7,385c-0.8-3.8-3.1-7-6.3-9.1c-3.3-2.1-7.1-2.8-10.9-2s-7,3.1-9.1,6.3c-1.5,2.3-2,5-2,7.7
				l-23.6,2.1c-1.2-7.5-1.9-15.1-1.9-22.8v-5.9c0-2.5,2-4.5,4.5-4.5h18.1c10.2,0,18.5-8.3,18.5-18.5s-8.3-18.5-18.5-18.5h-42.2
				c8.9-6.8,12.8-18.5,9.8-29.7c-2.5-9.4-10.3-16.9-19.7-19.2c-8.6-2.1-17.4-0.3-24.2,5c-6.8,5.3-10.7,13.3-10.7,21.9
				c0,8.7,3.9,16.6,10.4,22h-40c-10.2,0-18.5,8.3-18.5,18.5s8.3,18.5,18.5,18.5H317c2.5,0,4.5,2,4.5,4.5v6.4c0,2.4-0.3,4.8-0.4,7.2
				L295,387.8c-4.8-4.9-12.3-6.1-18.2-2.2c-6.7,4.4-8.5,13.4-4.1,20.1c2.1,3.2,5.4,5.5,9.2,6.2c1,0.2,2,0.3,3,0.3
				c2.8,0,5.6-0.8,7.9-2.4c3.2-2.1,5.5-5.4,6.2-9.2c0.6-2.7,0.1-5.4-0.9-7.9l22.6-11.1c-0.7,7.4-1.7,14.7-3.5,21.8l-5.8,23.6
				c-1.2,4.8-0.4,9.8,2.2,14s6.6,7.2,11.7,8.4c1.4,0.3,2.9,0.5,4.3,0.5c8.2,0,15.7-5.5,17.9-13.7l9.4-35.3c0.4-1.6,3.2-1.6,3.6,0
				l9.4,35.3c2.6,9.6,12.5,15.6,22.5,13.2c4.8-1.2,8.9-4.1,11.4-8.4c2.6-4.2,3.3-9.2,2.2-14l-5.9-24.1c-0.6-2.4-0.8-4.8-1.3-7.2
				l23.6-2.1c2.3,5.4,7.4,9,13.2,9c1,0,2-0.1,3.1-0.3c3.8-0.8,7-3.1,9.1-6.3C449.8,392.7,450.5,388.8,449.7,385z M293,399.4
				c-0.5,2.3-1.8,4.2-3.7,5.5c-1.9,1.3-4.3,1.7-6.5,1.3c-2.3-0.5-4.2-1.8-5.5-3.7c-1.3-1.9-1.7-4.3-1.3-6.5c0.5-2.3,1.8-4.2,3.7-5.5
				c1.4-0.9,3.1-1.4,4.8-1.4c0.6,0,1.2,0.1,1.8,0.2c2.3,0.5,4.2,1.8,5.5,3.7l0,0C293.1,394.8,293.5,397.1,293,399.4z M394.3,404.3
				l5.9,24.1c0.8,3.3,0.3,6.7-1.5,9.6s-4.5,4.9-8.1,5.8c-6.6,1.6-13.5-2.5-15.2-9.1l-9.4-35.3c-0.9-3.4-3.9-5.7-7.4-5.7
				s-6.5,2.3-7.4,5.7l-9.4,35.3c-1.8,6.6-8.6,10.7-15.5,9c-3.3-0.8-6.1-2.8-7.8-5.7c-1.8-2.9-2.3-6.3-1.5-9.6l5.8-23.6
				c2.1-8.6,3.2-17.4,3.8-26.2l23.9-11.8c1.4-0.7,2-2.5,1.3-3.9s-2.5-2-3.9-1.3l-21,10.4c0-1.4,0.3-2.8,0.3-4.2v-6.4
				c0-5.7-4.6-10.3-10.3-10.3h-15.1c-7,0-12.7-5.7-12.7-12.7s5.7-12.7,12.7-12.7h41.7c2.8,0,5.1-2.3,5.1-5.8c0-1.6-0.8-3.2-2.1-4.1
				c-5.8-4.2-9.2-10.7-9.2-17.9c0-6.8,3.1-13.2,8.5-17.4c5.4-4.2,12.4-5.7,19.3-4c7.4,1.8,13.5,7.8,15.5,15.1
				c2.6,9.6-1.1,19.5-9.2,24.7c-1.5,0.9-2.4,2.6-2.4,4.3c0,2.8,2.3,5.1,5.1,5.1h44.6c7,0,12.7,5.7,12.7,12.7s-5.7,12.7-12.7,12.7
				h-18.1c-5.7,0-10.3,4.6-10.3,10.3v5.9c0,7.8,0.8,15.6,2,23.3l-6.1,0.5c-1.6,0.1-2.8,1.6-2.6,3.1c0.1,1.5,1.4,2.6,2.9,2.6
				c0.1,0,0.2,0,0.3,0l6.6-0.6C393.4,398.9,393.7,401.6,394.3,404.3z M442.8,392.8c-1.3,2-3.2,3.3-5.5,3.8c-4.7,1-9.3-2-10.4-6.7
				l0,0c-0.5-2.3-0.1-4.6,1.2-6.6c1.3-2,3.2-3.3,5.5-3.8c0.6-0.1,1.2-0.2,1.9-0.2c1.7,0,3.3,0.5,4.7,1.4c2,1.3,3.3,3.2,3.8,5.5
				C444.5,388.5,444.1,390.8,442.8,392.8z"/>
		</g>
	</g>
</g>
<path class="st2" d="M351.8,362.9c-0.7-1.4-2.5-2-3.9-1.3l-21,10.4l-5.8,2.9L295,387.8c-4.8-4.9-12.3-6.1-18.2-2.2
	c-6.7,4.4-8.5,13.4-4.1,20.1c2.1,3.2,5.4,5.5,9.2,6.2c1,0.2,2,0.3,3,0.3c2.8,0,5.6-0.8,7.9-2.4c3.2-2.1,5.5-5.4,6.2-9.2
	c0.6-2.7,0.1-5.4-0.9-7.9l22.6-11.1l5.9-3l23.9-11.8C351.9,366.1,352.5,364.3,351.8,362.9z M293,399.4c-0.5,2.3-1.8,4.2-3.7,5.5
	s-4.3,1.7-6.5,1.3c-2.3-0.5-4.2-1.8-5.5-3.7c-1.3-1.9-1.7-4.3-1.3-6.5c0.5-2.3,1.8-4.2,3.7-5.5c1.4-0.9,3.1-1.4,4.8-1.4
	c0.6,0,1.2,0.1,1.8,0.2c2.3,0.5,4.2,1.8,5.5,3.7C293.1,394.8,293.5,397.1,293,399.4z"/>
<path class="st2" d="M449.7,385c-0.8-3.8-3.1-7-6.3-9.1c-3.3-2.1-7.1-2.8-10.9-2s-7,3.1-9.1,6.3c-1.5,2.3-2,5-2,7.7l-23.6,2.1
	l-5.5,0.6l-6.1,0.5c-1.6,0.1-2.8,1.6-2.6,3.1c0.1,1.5,1.4,2.6,2.9,2.6h0.3l6.6-0.6l5.4-0.5l23.6-2.1c2.3,5.4,7.4,9,13.2,9
	c1,0,2-0.1,3.1-0.3c3.8-0.8,7-3.1,9.1-6.3C449.8,392.7,450.5,388.8,449.7,385z M442.8,392.8c-1.3,2-3.2,3.3-5.5,3.8
	c-4.7,1-9.3-2-10.4-6.7c-0.5-2.3-0.1-4.6,1.2-6.6s3.2-3.3,5.5-3.8c0.6-0.1,1.2-0.2,1.9-0.2c1.7,0,3.3,0.5,4.7,1.4
	c2,1.3,3.3,3.2,3.8,5.5C444.5,388.5,444.1,390.8,442.8,392.8z"/>
</svg>
