<?xml version="1.0" encoding="utf-8"?>
<!-- Generator: Adobe Illustrator 22.1.0, SVG Export Plug-In . SVG Version: 6.00 Build 0)  -->
<svg version="1.1" id="Layer_1" xmlns="http://www.w3.org/2000/svg" xmlns:xlink="http://www.w3.org/1999/xlink" x="0px" y="0px"
	 viewBox="0 0 720 720" style="enable-background:new 0 0 720 720;" xml:space="preserve">
<style type="text/css">
	.st0{fill:url(#Rectangle-Copy_1_);}
	.st1{fill:#FFFFFF;}
	.st2{fill:#ED1E24;}
</style>
<title>tools</title>
<desc>Created with Sketch.</desc>
<g id="Page-1">
	<g id="tools">
		<g id="Group">
			
				<radialGradient id="Rectangle-Copy_1_" cx="579.6945" cy="710.2361" r="0.7071" gradientTransform="matrix(720 0 0 -720 -417020 511730)" gradientUnits="userSpaceOnUse">
				<stop  offset="0" style="stop-color:#FAFAFA"/>
				<stop  offset="1" style="stop-color:#EEEEEE"/>
			</radialGradient>
			<rect id="Rectangle-Copy" class="st0" width="720" height="720"/>
			<g id="Rectangle">
				<g>
					<rect id="path-2_2_" x="200" y="201" width="321" height="321"/>
				</g>
				<g>
					<rect id="path-2_1_" x="200" y="201" class="st1" width="321" height="321"/>
				</g>
			</g>
			<g id="Shape" transform="translate(281.000000, 280.000000)">
				<path class="st2" d="M53.9,99.4c-1.2-1.2-3.3-1.2-4.5,0l-36.1,36.1c-1.2,1.2-1.2,3.3,0,4.5c0.6,0.6,1.4,0.9,2.3,0.9
					c0.8,0,1.6-0.3,2.3-0.9L54,103.9C55.1,102.7,55.1,100.6,53.9,99.4z"/>
				<path class="st2" d="M57.2,108.3l-36.1,36.1c-1.2,1.2-1.2,3.3,0,4.5c0.6,0.6,1.4,0.9,2.3,0.9c0.8,0,1.6-0.3,2.3-0.9l36.1-36.1
					c1.2-1.2,1.2-3.3,0-4.5C60.5,107.1,58.5,107.1,57.2,108.3z"/>
				<path class="st2" d="M114.4,92.2L97.8,75.6L136,37.4h7.6c0.8,0,1.6-0.3,2.2-0.9l13.3-13.3c0.6-0.6,0.9-1.4,0.9-2.2
					c0-0.8-0.3-1.6-0.9-2.2L141.3,0.9c-1.2-1.2-3.2-1.2-4.4,0l-13.3,13.3c-0.6,0.6-0.9,1.4-0.9,2.2V24L84.4,62.2
					C80.3,58,71.3,49,67.8,45.6c4-12.3,0.8-25.9-8.4-35.1C50.6,1.7,37.6-1.7,25.6,1.6c-1.1,0.3-1.9,1.2-2.2,2.2s0,2.2,0.8,3L36,18.7
					l-3.7,13.7L18.7,36L6.9,24.2c-0.8-0.8-1.9-1.1-3-0.8c-1.1,0.3-1.9,1.1-2.2,2.2c-3.4,12,0,25,8.8,33.8
					c9.2,9.2,22.8,12.4,35.1,8.4l16.6,16.7l-4.1,4.1c-2.5-1.2-5.3-1.9-8.1-1.9c-5,0-9.8,2-13.3,5.5L5.5,123.4
					c-7.3,7.4-7.3,19.3,0,26.7l4.4,4.4c3.6,3.6,8.3,5.5,13.3,5.5s9.8-2,13.3-5.5l31.1-31.1c3.6-3.6,5.5-8.3,5.5-13.3
					c0-2.9-0.7-5.6-1.9-8.1l4.1-4.1L92,114.6c-4,12.3-0.8,25.9,8.4,35.1c6.6,6.6,15.4,10.1,24.5,10.1c3.1,0,6.2-0.4,9.3-1.3
					c1.1-0.3,1.9-1.1,2.2-2.2c0.3-1.1,0-2.2-0.8-3l-11.6-12l3.7-13.7l13.7-3.7l11.8,11.8c0.8,0.8,1.9,1.1,3,0.8s1.9-1.1,2.2-2.2
					c3.4-12,0-25-8.8-33.8C140.3,91.4,126.7,88.2,114.4,92.2z M48.6,61.9c-0.9-0.9-2.2-1.2-3.4-0.7c-10.5,4.1-22.4,1.6-30.3-6.3
					c-5.8-5.8-8.8-13.9-8.2-22l8.8,8.8c0.8,0.8,2,1.1,3,0.8l17.2-4.6c1.1-0.3,1.9-1.1,2.2-2.2l4.6-17.2c0.3-1.1,0-2.2-0.8-3
					l-8.8-8.8c8.1-0.6,16.1,2.4,22,8.2c7.9,7.9,10.4,19.8,6.3,30.3c-0.8,1.9-0.8,1.9,10.8,13.6l7.9,7.9L66.7,80L48.6,61.9z
					 M128,27.6c0.6-0.6,0.9-1.4,0.9-2.2v-7.6l10.2-10.2l13.3,13.3l-10.2,10.2h-7.6c-0.8,0-1.6,0.3-2.2,0.9L67.8,96.7l-4.4-4.4
					L128,27.6z M63.3,118.9L32.2,150c-4.7,4.8-13,4.8-17.8,0l-4.4-4.4c-4.9-4.9-4.9-12.9,0-17.8l31.1-31.1c2.4-2.4,5.5-3.7,8.9-3.7
					s6.5,1.3,8.9,3.7l4.4,4.4c2.4,2.4,3.7,5.5,3.7,8.9S65.7,116.5,63.3,118.9z M153.3,127.1l-8.8-8.8c-0.8-0.8-1.9-1.1-3-0.8
					l-17.2,4.6c-1.1,0.3-1.9,1.1-2.2,2.2l-4.6,17.2c-0.3,1.1,0,2.2,0.8,3l8.8,8.8c-8.1,0.6-16.1-2.4-22-8.2
					c-7.9-7.9-10.4-19.8-6.3-30.3c0.5-1.2,0.2-2.5-0.7-3.4L80,93.3L93.3,80l18.1,18.1c0.9,0.9,2.2,1.2,3.4,0.7
					c10.5-4.1,22.4-1.6,30.3,6.3C150.9,110.9,153.8,119,153.3,127.1z"/>
			</g>
		</g>
	</g>
</g>
</svg>
