<?xml version="1.0" encoding="utf-8"?>
<!-- Generator: Adobe Illustrator 22.1.0, SVG Export Plug-In . SVG Version: 6.00 Build 0)  -->
<svg version="1.1" id="Layer_1" xmlns="http://www.w3.org/2000/svg" xmlns:xlink="http://www.w3.org/1999/xlink" x="0px" y="0px"
	 viewBox="0 0 720 720" style="enable-background:new 0 0 720 720;" xml:space="preserve">
<style type="text/css">
	.st0{fill:url(#Rectangle-Copy_1_);}
	.st1{fill:#FFFFFF;}
	.st2{fill:#ED1E24;}
</style>
<title>wants</title>
<desc>Created with Sketch.</desc>
<g id="Page-1">
	<g id="wants">
		<g id="Group">
			
				<radialGradient id="Rectangle-Copy_1_" cx="320.0555" cy="-249.875" r="0.7071" gradientTransform="matrix(720 0 0 720 -230080 180270)" gradientUnits="userSpaceOnUse">
				<stop  offset="0" style="stop-color:#FAFAFA"/>
				<stop  offset="1" style="stop-color:#EEEEEE"/>
			</radialGradient>
			<rect id="Rectangle-Copy" class="st0" width="720" height="720"/>
			<g id="Rectangle">
				<g>
					<rect id="path-2_2_" x="200" y="201" width="321" height="321"/>
				</g>
				<g>
					<rect id="path-2_1_" x="200" y="201" class="st1" width="321" height="321"/>
				</g>
			</g>
		</g>
		<path id="Fill-1" class="st2" d="M421.3,396.7c-0.3-0.7-1-0.7-1.5-0.9c-2.2-1.1-3.1-2.4-3-4.5c0.1-2.2,1.5-3.3,3.4-4
			c1.1-0.4,2.3-0.5,3.4-0.8c1.8-0.4,1.9-0.6,0.9-2c-0.8-1.2-1.5-2.3-1.9-3.6c-1.2-3.3-0.1-6.3,3.1-7.9c1.2-0.6,2.5-1.1,3.8-1.6
			c5.1-2,5.5-3.6,2.1-7.9c-2.4-3.1-5.1-5.9-7.6-8.9c-5.4-6.4-8.1-13.6-5.5-22c1.5-4.8,2-9.5,1.4-14.4c-0.7-5.4-2-10.6-5.1-15.1
			c-7.9-11.5-18.8-18.9-32.2-22.6c-14.6-4.1-29.5-4.9-44.4-2.3c-14.6,2.5-27.5,8.6-37.9,19.5c-9.3,9.7-13.8,21.4-14.5,34.6
			c-0.4,7.9,1.1,15.6,3.1,23.1c2.7,9.7,7.4,18.2,14.3,25.6c3.4,3.6,6.7,7.4,9.5,11.5c2.4,3.5,3.7,7.4,3.3,11.6
			c-0.4,5.7-1.4,11.2-3.2,16.7c-2.1,6.2-4.9,12.2-7.5,18.1c-2,4.4-1.9,4.5,2.8,4.5c17,0,34,0,51,0c5.8,0,11.5,0,17.3,0
			c2.9,0,3.6-0.7,3.4-3.7c0-0.7-0.2-1.4-0.2-2c-0.2-3-1-6-0.9-9c0.2-5.1,4-9.1,9.1-9.3c1.8-0.1,3.5,0,5.3,0.2
			c4.2,0.5,8.3,1.1,12.5,1.4c3.1,0.2,6.2,0.4,9.3-0.3c5.5-1.3,6.9-4,4.5-9.2c-0.9-2-1.9-3.9-2.7-5.9c-1.1-3,0-5.6,2.5-7.4
			C420,397.8,421,397.7,421.3,396.7 M342.5,450c-11.6,0-23.2,0-34.9,0c-1,0-2,0-2.9,0c-5.9,0.2-9.6-5.7-6.9-11.1
			c1.1-2.3,2.2-4.6,3.2-6.9c2.8-6.5,5.9-12.8,7.1-19.8c0.2-1.4,0.5-2.9,0.8-4.3c1.1-5.8-0.5-10.8-4.4-15.1
			c-3.3-3.6-6.4-7.4-9.6-11.1c-7.4-8.6-11.2-18.9-13.9-29.7c-1.9-8-2.4-16.1-1.7-24.2c1.1-11.9,5.6-22.5,13.2-31.7
			c9.6-11.7,22.1-18.7,36.5-22.7c6.6-1.9,13.3-2.8,20.2-3.1c13.5-0.5,26.7,0.7,39.5,5.1c9.4,3.2,17.7,8.3,24.6,15.4
			c6.2,6.3,10.9,13.6,12.5,22.5c1.2,6.7,1.8,13.4-0.6,20c-2.6,7.2,0.1,12.9,4.8,18.2c3,3.4,6.2,6.8,8.6,10.7c3.6,5.7,2,11.5-4,14.5
			c-1.3,0.6-2.7,1.1-4.1,1.7c-1.2,0.5-1.4,1.2-0.7,2.3c0.7,1,1.4,1.9,1.9,2.9c1.5,3.1,1.1,5.5-1.3,7.9c-0.7,0.7-1.1,1.2-0.8,2.3
			c1,4.4,0.1,6.4-3.7,8.8c-0.3,0.2-0.7,0.4-1,0.6c-1.5,0.6-1.5,1.6-0.8,2.8c0.4,0.8,0.8,1.6,1.2,2.4c0.7,1.4,1.2,2.9,1.6,4.4
			c1.5,6.2-0.8,11-6.6,13.6c-3.7,1.6-7.7,2.1-11.8,1.8c-6.1-0.3-12.2-1.2-18.3-1.9c-3.7-0.4-5.3,1.3-4.6,5c0.7,3.6,1,7.2,0.9,10.8
			c-0.1,2-0.5,3.9-1.3,5.7c-0.7,1.6-1.9,2.5-3.7,2.5c-1,0-2,0-2.9,0C366.6,450,354.6,450,342.5,450"/>
		<path id="Path-2-Copy" class="st2" d="M356.8,321.2c0.1-4.8-3.5-8.7-8.4-8.7c-3.2,0-7.1,2-11.8,6.3c-1.4,1.3-3.6,1.2-4.9-0.2
			c-3.8-4.2-7.2-6.1-10.3-6.1c-5.8,0-9.2,2.9-9.4,8.9c-0.2,6,7,13.6,22.2,22.1C349.3,335,356.6,327.4,356.8,321.2z M348.4,305.6
			c8.8,0,15.5,7.1,15.3,15.7c-0.3,9.7-9.7,19.2-27.7,29.1c-1,0.6-2.3,0.6-3.3,0c-18.5-10-27.9-19.6-27.5-29.3
			c0.4-9.9,7.1-15.5,16.3-15.5c4.4,0,8.7,2,13,6C339.4,307.7,344,305.6,348.4,305.6z"/>
	</g>
</g>
</svg>
