<?xml version="1.0" encoding="utf-8"?>
<!-- Generator: Adobe Illustrator 22.1.0, SVG Export Plug-In . SVG Version: 6.00 Build 0)  -->
<svg version="1.1" id="Layer_1" xmlns="http://www.w3.org/2000/svg" xmlns:xlink="http://www.w3.org/1999/xlink" x="0px" y="0px"
	 viewBox="0 0 720 720" style="enable-background:new 0 0 720 720;" xml:space="preserve">
<style type="text/css">
	.st0{fill:url(#Rectangle-Copy_1_);}
	.st1{fill:#FFFFFF;}
	.st2{fill:#ED1E24;}
</style>
<title>workflow</title>
<desc>Created with Sketch.</desc>
<g id="Page-1">
	<g id="workflow">
		<g id="Group">
			
				<radialGradient id="Rectangle-Copy_1_" cx="579.6945" cy="710.2361" r="0.7071" gradientTransform="matrix(720 0 0 -720 -417020 511730)" gradientUnits="userSpaceOnUse">
				<stop  offset="0" style="stop-color:#FAFAFA"/>
				<stop  offset="1" style="stop-color:#EEEEEE"/>
			</radialGradient>
			<rect id="Rectangle-Copy" class="st0" width="720" height="720"/>
			<g id="Rectangle">
				<g>
					<rect id="path-2_2_" x="200" y="201" width="321" height="321"/>
				</g>
				<g>
					<rect id="path-2_1_" x="200" y="201" class="st1" width="321" height="321"/>
				</g>
			</g>
		</g>
		<g id="Group_1_" transform="translate(271.000000, 256.000000)">
			<path id="Shape" class="st2" d="M184.7,55h-3.3c-6.6,0-12.3,5.4-12.3,12.3v84.2v0.6l10.8,42.5c0.3,1.2,1.5,2.4,3,2.4
				s2.7-0.9,3-2.4l11.1-42.5v-0.6V67.3C197,60.4,191.6,55,184.7,55z M175.3,82.9H191v65.3h-15.7V82.9z M181.3,61h3.3
				c3.3,0,6.3,2.7,6.3,6.3v9.9h-15.7v-9.9C175.3,63.7,178,61,181.3,61z M183.2,181.7l-7.2-27.3h14.2L183.2,181.7z"/>
			<path id="Shape_1_" class="st2" d="M150.3,27.8H124v-7.2c0-1.8-1.2-3-3-3h-11.7v-2.4c0-8.4-7.5-15.2-16.7-15.2H68.7
				C59.5,0,52,6.9,52,15.2v2.1H40.6c-1.8,0-3,1.2-3,3v7.2h-26C5.4,27.5,0,32.3,0,38.3v148c0,6,5.1,10.8,11.7,10.8h138.7
				c6.3,0,11.7-4.8,11.7-10.8V38.6C162,32.6,156.9,27.8,150.3,27.8z M58.3,15.2c0-5,4.8-9.2,10.7-9.2h24c6,0,10.8,4.2,10.8,9.3v2.1
				H58.3V15.2z M118.4,23.6V43H43.9c0-2.1,0-17,0-19.4C104.3,23.6,106.4,23.6,118.4,23.6z M156,186.5c0,2.7-2.7,4.8-5.7,4.8H11.7
				c-3,0-5.7-2.1-5.7-4.8v-148c0-2.7,2.7-4.8,5.7-4.8H38V46c0,1.8,1.2,3,3,3h80.4c1.8,0,3-1.2,3-3V33.8h26.3c3,0,5.7,2.1,5.7,4.8
				v148H156V186.5z"/>
			<path id="Shape_2_" class="st2" d="M136.7,144.3v-31.1c0-1.8-1.2-3-3-3h-12v-8.6c0-1.8-1.2-3-3-3H83.5v-7.7
				c8.7-1.5,15.3-8.9,15.3-17.8C98.7,63,90.7,55,80.5,55s-18.2,8-18.2,18.1c0,8.9,6.6,16.3,15.3,17.8v7.7H42.2c-1.8,0-3,1.2-3,3v8.6
				h-12c-1.8,0-3,1.2-3,3v31.1C15.6,145.7,9,153.2,9,162.1c0,10.1,8.1,18.1,18.2,18.1s18.2-8,18.2-18.1c0-8.9-6.6-16.3-15.3-17.8
				v-28.2h9v8.6c0,1.8,1.2,3,3,3h35.3v14.2L59.3,160c-1.2,1.2-1.2,3,0,4.2l19.1,19c0.6,0.6,1.5,0.9,2.1,0.9c0.9,0,1.5-0.3,2.1-0.9
				l19.1-19c0.6-0.6,0.9-1.2,0.9-2.1c0-0.9-0.3-1.5-0.9-2.1l-18.2-18.1v-14.5h35.3c1.8,0,3-1.2,3-3v-8.3h9v28.2
				c-8.7,1.5-15.3,8.9-15.3,17.8c0,10.1,8.1,18.1,18.2,18.1c10.2,0,18.2-8,18.2-18.1C152,153.2,145.4,145.7,136.7,144.3z M68.2,73.1
				c0-6.8,5.4-12.2,12.3-12.2s12.3,5.3,12.3,12.2c0,6.8-5.4,12.2-12.3,12.2S68.2,79.6,68.2,73.1z M39.5,162.1
				c0,6.8-5.4,12.2-12.3,12.2S15,168.9,15,162.1c0-6.8,5.4-12.2,12.3-12.2S39.5,155.2,39.5,162.1z M80.5,176.9l-15-14.8l15-14.8
				l15,14.8L80.5,176.9z M45.2,121.4v-16.9h70.6c0,3.9,0,8,0,16.9H45.2z M133.8,174.2c-6.9,0-12.3-5.3-12.3-12.2
				c0-6.8,5.4-12.2,12.3-12.2c6.9,0,12.3,5.3,12.3,12.2C146,168.6,140.6,174.2,133.8,174.2z"/>
		</g>
	</g>
</g>
</svg>
