<?xml version="1.0" encoding="utf-8"?>
<!-- Generator: Adobe Illustrator 21.0.2, SVG Export Plug-In . SVG Version: 6.00 Build 0)  -->
<svg version="1.1" id="Layer_1" xmlns="http://www.w3.org/2000/svg" xmlns:xlink="http://www.w3.org/1999/xlink" x="0px" y="0px"
	 viewBox="0 0 12.2 12" style="enable-background:new 0 0 12.2 12;" xml:space="preserve">
<style type="text/css">
	.st0{fill:#ED1E24;}
</style>
<title>annotation</title>
<desc>Created with Sketch.</desc>
<g id="Page-1">
	<path id="annotation" class="st0" d="M7.9,5.9C8,5.9,8.2,6,8.2,6.2S8,6.5,7.9,6.5H0.3C0.1,6.5,0,6.4,0,6.2s0.1-0.3,0.3-0.3
		C0.3,5.9,7.9,5.9,7.9,5.9z M7.9,3.7C8,3.7,8.2,3.8,8.2,4c0,0.2-0.1,0.3-0.3,0.3H0.3C0.1,4.2,0,4.1,0,4c0-0.2,0.1-0.3,0.3-0.3H7.9z
		 M7.9,8.2c0.2,0,0.3,0.1,0.3,0.3c0,0.2-0.1,0.3-0.3,0.3H0.3C0.1,8.7,0,8.6,0,8.4c0-0.2,0.1-0.3,0.3-0.3H7.9z M7.9,10.4
		c0.2,0,0.3,0.1,0.3,0.3S8,10.9,7.9,10.9H0.3c-0.2,0-0.3-0.1-0.3-0.3s0.1-0.3,0.3-0.3H7.9z M10.8,1.2c-0.2,0-0.3-0.2-0.3-0.3
		c0-0.5,0.4-0.8,0.8-0.8c0.5,0,0.8,0.4,0.8,0.8c0,0.2-0.2,0.3-0.3,0.3S11.5,1,11.5,0.8c0-0.1-0.1-0.2-0.2-0.2s-0.2,0.1-0.2,0.2
		C11.1,1,11,1.2,10.8,1.2L10.8,1.2z M1.8,2.3C1.4,2.3,1.2,2,1.2,1.7s0.3-0.6,0.6-0.6s0.6,0.3,0.6,0.6C2.3,2.1,2.1,2.3,1.8,2.3z
		 M4.1,2.3C3.8,2.3,3.5,2,3.5,1.7s0.3-0.6,0.6-0.6s0.6,0.3,0.6,0.6C4.7,2.1,4.4,2.3,4.1,2.3z M6.4,2.3c-0.3,0-0.6-0.2-0.6-0.6
		c0-0.3,0.3-0.6,0.6-0.6C6.8,1.1,7,1.4,7,1.7C7,2.1,6.8,2.3,6.4,2.3z M12.2,10L12.2,10c0,0.1,0.1,0.2,0,0.3l-0.7,1.5
		c0,0.1-0.2,0.2-0.3,0.2c0,0-0.2-0.1-0.3-0.2l-0.8-1.4c0,0,0-0.1,0-0.2c0,0,0-0.1,0-0.1V2.4L9.6,2.8v1.8C9.6,4.8,9.5,5,9.3,5
		S9,4.8,9,4.7v-2c0-0.1,0-0.2,0.1-0.2L10,1.8c0.1,0,0.2-0.1,0.2,0c0.1-0.3,0.9-0.6,1.2-0.6c0.2,0,0.4,0.1,0.5,0.2
		c0.1,0.1,0.2,0.3,0.2,0.5c0,0,0,0,0,0.1L12.2,10z M11.5,1.8c0,0-0.7,0-0.7,0.2v2.3c0.1,0,0.7,0,0.8,0V1.9
		C11.6,1.8,11.6,1.8,11.5,1.8C11.6,1.8,11.5,1.8,11.5,1.8z M10.8,8.3v1.6h0.8V8.2C11.5,8.3,10.9,8.3,10.8,8.3
		C10.8,8.3,10.8,8.3,10.8,8.3z M11.6,6V4.7c0,0-0.7,0-0.7,0h0V6C10.9,6,11.5,6,11.6,6z M11.6,7.8V6.5c0,0-0.7,0-0.7,0h0v1.2
		C10.9,7.7,11.5,7.7,11.6,7.8z"/>
</g>
</svg>
