<?xml version="1.0" encoding="utf-8"?>
<!-- Generator: Adobe Illustrator 21.0.2, SVG Export Plug-In . SVG Version: 6.00 Build 0)  -->
<svg version="1.1" id="Layer_1" xmlns="http://www.w3.org/2000/svg" xmlns:xlink="http://www.w3.org/1999/xlink" x="0px" y="0px"
	 viewBox="0 0 27 30" style="enable-background:new 0 0 27 30;" xml:space="preserve">
<style type="text/css">
	.st0{fill:#ED1E24;}
</style>
<title>attachment</title>
<desc>Created with Sketch.</desc>
<g>
	<path class="st0" d="M22.1,23.1h-5.4c-0.4,0-0.7,0.3-0.7,0.8c0,0.4,0.3,0.8,0.7,0.8h5.4c0.4,0,0.7-0.3,0.7-0.8
		C22.8,23.4,22.5,23.1,22.1,23.1z"/>
	<path class="st0" d="M13.6,20.8c-0.4,0-0.7,0.3-0.7,0.7c0,1.6-1.5,3-3.2,3s-3.2-1.4-3.2-3V8.4c0-1.6,1.5-3,3.2-3c0,0,0.1,0,0.1,0
		c0,0,0.1,0,0.1,0c1.2,0,2.3,1,2.3,2.1v10c0,1.2-0.7,2-1.9,2c-0.5,0-1-0.4-1-1v-5.6c0-0.4-0.3-0.7-0.7-0.7c-0.4,0-0.7,0.3-0.7,0.7
		v5.6c0,1.3,1.1,2.4,2.4,2.4c1.9,0,3.4-1.5,3.4-3.5v-10c0-1.9-1.7-3.6-3.8-3.6c0,0-0.1,0-0.1,0c0,0-0.1,0-0.1,0
		c-2.5,0-4.7,2.1-4.7,4.5v13.2C4.9,24,7.1,26,9.6,26s4.7-2.1,4.7-4.5C14.3,21.1,14,20.8,13.6,20.8z"/>
	<path class="st0" d="M22.1,19.6h-5.4c-0.4,0-0.7,0.3-0.7,0.8c0,0.4,0.3,0.8,0.7,0.8h5.4c0.4,0,0.7-0.3,0.7-0.8
		C22.8,19.9,22.5,19.6,22.1,19.6z"/>
	<path class="st0" d="M21,0H0.9v30h25.7V5.6L21,0z M20.4,1.7l4.5,4.5h-4.5V1.7z M2.4,28.5v-27l16.7-0.1v4.8c0,0.4,0.7,1.3,1.1,1.3
		H25l0,20.9H2.4z"/>
	<path class="st0" d="M22.1,10h-5.4c-0.4,0-0.7,0.3-0.7,0.8c0,0.4,0.3,0.8,0.7,0.8h5.4c0.4,0,0.7-0.3,0.7-0.8
		C22.8,10.4,22.5,10,22.1,10z"/>
	<path class="st0" d="M22.1,13.5h-5.4c-0.4,0-0.7,0.3-0.7,0.8c0,0.4,0.3,0.8,0.7,0.8h5.4c0.4,0,0.7-0.3,0.7-0.8
		C22.8,13.9,22.5,13.5,22.1,13.5z"/>
</g>
</svg>
