<?xml version="1.0" encoding="utf-8"?>
<!-- Generator: Adobe Illustrator 21.0.2, SVG Export Plug-In . SVG Version: 6.00 Build 0)  -->
<svg version="1.1" id="Layer_1" xmlns="http://www.w3.org/2000/svg" xmlns:xlink="http://www.w3.org/1999/xlink" x="0px" y="0px"
	 viewBox="0 0 31 32" style="enable-background:new 0 0 31 32;" xml:space="preserve">
<style type="text/css">
	.st0{fill:#ED1E24;}
</style>
<title>click</title>
<desc>Created with Sketch.</desc>
<g id="Page-1">
	<path id="click" class="st0" d="M19.1,25.1C19,25.2,19,25.2,19.1,25.1l-3.2,3.3c-0.3,0.3-0.7,0.3-0.9,0c-0.2-0.2-0.2-0.4-0.2-0.6
		l-3-15.3c0-0.2,0-0.4,0.2-0.6s0.4-0.2,0.6-0.2l15.5,3.1c0.2,0,0.4,0.2,0.5,0.5c0.1,0.2,0,0.5-0.2,0.7l-4.8,4.8l7.5,7.5l-3.3,3.3
		c-0.1,0.1-7.4-7.4-7.4-7.4c0-0.2,0.9-1,0.9-1c3.3,3.4,6.5,6.5,6.5,6.5l1.4-1.4l-6.6-6.6L19.1,25.1z M15.8,26.5l2-2c0,0,0,0,0.1-0.1
		l8.6-8.6l-13.3-2.6L15.8,26.5z M8.3,23.7c0.3-0.2,0.7-0.2,0.9,0c0.2,0.3,0.2,0.7,0,0.9l-3.3,3c-0.1,0.1-0.3,0.2-0.5,0.2
		c-0.2,0-0.4-0.1-0.5-0.2c-0.2-0.3-0.2-0.7,0-0.9L8.3,23.7z M6.9,16.7l-0.2,2.2l-5,0.7c0,0-0.1,0-0.1,0c-0.3,0-0.6-0.2-0.7-0.6
		c0-0.4,0.2-0.7,0.6-0.8l4-0.5l0.1-1.1c0-0.4,0.4-0.6,0.7-0.6C6.6,16,6.9,16.4,6.9,16.7z M2.8,10.4c-0.3-0.2-0.5-0.6-0.3-0.9
		c0.2-0.3,0.6-0.5,0.9-0.3l4,2.1c0.3,0.2,0.5,0.6,0.3,0.9c-0.1,0.2-0.4,0.4-0.6,0.4c-0.1,0-0.2,0-0.3-0.1L2.8,10.4z M13.9,6.6
		C14,7,13.8,7.4,13.4,7.5L11.3,8L8.9,3.6C8.8,3.2,8.9,2.8,9.2,2.6c0.3-0.2,0.7-0.1,0.9,0.3L12,6.4l1.1-0.3
		C13.5,6.1,13.8,6.3,13.9,6.6z M18,6.6c-0.4,0-0.6-0.4-0.6-0.7l0.5-4.5c0-0.4,0.4-0.6,0.7-0.6c0.4,0,0.6,0.4,0.6,0.7L18.7,6
		C18.7,6.4,18.4,6.6,18,6.6C18,6.6,18,6.6,18,6.6z M25,10.6c-0.2,0-0.4-0.1-0.5-0.3l-1.3-1.8l3.3-3.8c0.2-0.3,0.7-0.3,0.9-0.1
		c0.3,0.2,0.3,0.7,0.1,0.9l-2.6,3l0.7,0.9c0.2,0.3,0.1,0.7-0.2,0.9C25.2,10.6,25.1,10.6,25,10.6z"/>
</g>
</svg>
