<?xml version="1.0" encoding="utf-8"?>
<!-- Generator: Adobe Illustrator 21.0.2, SVG Export Plug-In . SVG Version: 6.00 Build 0)  -->
<svg version="1.1" id="Layer_1" xmlns="http://www.w3.org/2000/svg" xmlns:xlink="http://www.w3.org/1999/xlink" x="0px" y="0px"
	 viewBox="0 0 35 33" style="enable-background:new 0 0 35 33;" xml:space="preserve">
<style type="text/css">
	.st0{fill:#ED1E24;}
</style>
<title>cloud-add</title>
<desc>Created with Sketch.</desc>
<g id="Page-1">
	<path id="cloud-add" class="st0" d="M16.1,24c1.9,0,3.5,0,3.6,0c0.3,0,0.6,0.3,0.6,0.6c0,0.3-0.3,0.6-0.6,0.6c0,0-1.7,0-3.6,0
		c0,1.8,0,3.5,0,3.6c0,0.4-0.3,0.6-0.6,0.6c-0.3,0-0.6-0.3-0.6-0.6c0,0,0-1.7,0-3.6c-1.8,0-3.5,0-3.6,0c-0.4,0-0.6-0.3-0.6-0.6
		c0-0.3,0.3-0.6,0.6-0.6c0,0,1.7,0,3.6,0c0-1.9,0-3.5,0-3.6c0-0.3,0.3-0.6,0.6-0.6c0.3,0,0.6,0.3,0.6,0.6
		C16.1,20.5,16.1,22.2,16.1,24z M25.4,5.8c1.4,0.1,2.8,0.9,3.4,2.1c3.3,0.6,5.8,3.5,6,6.8c0,7.1-2.4,7.1-5.2,7.1h-3.9
		c-0.4,0-0.7-0.3-0.7-0.7c0-0.4,0.3-0.7,0.7-0.7h3.9c2,0,3.6,0,3.6-5.4c0-2.8-2.3-5.4-5.1-5.8c-0.3,0-0.5-0.2-0.6-0.5
		c-0.4-1-1.3-1.6-2.3-1.6c-0.2,0-0.3,0.1-0.3,0.1c-0.2,0-0.4,0-0.6-0.2C24.1,7.1,24,6.9,24,6.6c0-2.4-1.9-4.3-4.3-4.3
		c-1.9,0-3.5,1.2-4,3.1c-0.1,0.2-0.3,0.4-0.5,0.5c-0.2,0.1-0.5,0-0.7-0.2c-0.8-0.7-1.7-1.1-2.7-1.1C9.7,4.6,8,6.2,7.8,8.3
		c0,0.3-0.3,0.6-0.6,0.7c-2.7,0.4-5,3.2-5,6c0,5.5,1.8,5.5,3.6,5.5H5.6c0.4,0,0.7,0.3,0.7,0.7C6.3,21.6,6,22,5.6,22h0.3
		c-3,0-5-1.2-5-7c0,0,0-0.1,0-0.1c0-3.4,2.5-6.5,5.7-7.2c0.4-2.6,2.6-4.5,5.3-4.5c1,0,2.1,0.3,2.9,0.9c1-1.9,2.9-3.1,5-3.1
		C22.6,0.9,25,3.1,25.4,5.8z M23.9,16.6c-0.3-0.3-0.3-0.7,0-1c0.3-0.4,0.7-0.6,1.2-0.8c-0.3-0.6-0.8-1.1-1.4-1.5
		c-0.8-0.4-1.6-0.5-2.4-0.2c-0.4,0.1-0.8-0.1-0.9-0.5c-0.1-0.4,0.1-0.8,0.5-0.9c1.2-0.4,2.4-0.2,3.5,0.3c1,0.5,1.7,1.3,2.1,2.3
		c0.1,0,0.2,0,0.3,0c1.1,0,2.1,0.4,2.9,1.1c0.3,0.3,0.3,0.7,0,1c-0.3,0.3-0.7,0.3-1,0c-0.5-0.5-1.2-0.8-1.9-0.7
		c-0.7,0-1.3,0.3-1.8,0.8c-0.1,0.1-0.3,0.2-0.5,0.2C24.2,16.8,24,16.7,23.9,16.6z M13.1,12c-0.4,0-0.7-0.4-0.6-0.8
		c0-0.1,0.1-0.2,0.1-0.4c-2.1-0.4-4.2,0.9-4.6,3c-0.1,0.3-0.4,0.6-0.7,0.6c-0.1,0-0.1,0-0.2,0c-0.4-0.1-0.6-0.5-0.5-0.9
		c0.7-2.9,3.5-4.8,6.5-4.1c0,0,0.1,0,0.1,0c0.8-1.3,2.3-2.1,3.8-1.9c0.4,0,0.7,0.4,0.6,0.8c0,0.4-0.4,0.7-0.8,0.6
		c-1.5-0.1-2.7,0.9-2.9,2.3C13.9,11.8,13.6,12,13.1,12C13.2,12,13.2,12,13.1,12z M9.3,18.8c1.6-1.6,3.7-2.5,6-2.5
		c4.6,0,8.3,3.7,8.3,8.3s-3.7,8.3-8.3,8.3c-2.3,0-4.4-0.9-6-2.5c-1.6-1.6-2.4-3.7-2.4-5.9C6.9,22.4,7.7,20.3,9.3,18.8z M8.1,24.6
		c0,3.9,3.2,7.1,7.1,7.1c4,0,7.2-3.2,7.2-7.1s-3.2-7.1-7.2-7.1C11.3,17.5,8.1,20.7,8.1,24.6z"/>
</g>
</svg>
