<?xml version="1.0" encoding="utf-8"?>
<!-- Generator: Adobe Illustrator 21.0.2, SVG Export Plug-In . SVG Version: 6.00 Build 0)  -->
<svg version="1.1" id="Layer_1" xmlns="http://www.w3.org/2000/svg" xmlns:xlink="http://www.w3.org/1999/xlink" x="0px" y="0px"
	 viewBox="0 0 36 31" style="enable-background:new 0 0 36 31;" xml:space="preserve">
<style type="text/css">
	.st0{fill:#ED1E24;}
</style>
<title>dialog</title>
<desc>Created with Sketch.</desc>
<g id="Page-1">
	<path id="dialog" class="st0" d="M34.3,14.7c0,1.5-1.2,2.7-2.3,2.8c-0.4,0-0.7,0.4-0.7,0.7v2.7l-4.8-2.7c-0.1,0-0.2-0.1-0.3-0.1
		h-0.8v-5.7c0-0.6-0.1-1.2-0.2-1.7c-0.1-0.3-0.2-0.7-0.4-1c-0.6-1.2-1.7-1.9-3-1.9H10.8v-3c0-1.6,1.9-2.9,3.4-2.9h16.9
		c1.5,0,3.2,1.2,3.2,2.9V14.7z M24,22.4c0,0.5-0.1,3.1-2.2,3.1H9.6L4.9,28v-2.8l-0.7-0.1C3.2,25.1,2,23.9,2,22.4v-9.9
		c0-1.6,1.5-3.2,3-3.2h4.3v5.4c0,2.4,2.5,4.9,4.9,4.9H24V22.4z M24,18.1h-9.8c-1.6,0-3.4-1.8-3.4-3.4V9.3h11.1
		c1.6,0,2.2,1.7,2.2,3.2V18.1z M14.2,0.5c-2.3,0-4.9,1.9-4.9,4.3v3H5c-2.3,0-4.5,2.2-4.5,4.6v9.9c0,2.1,1.4,3.6,2.9,4.1v4l6.5-3.6
		h11.9c2.2,0,3.6-1.8,3.6-4.6v-2.8h0.6l5.7,3.2c0.1,0,1,0.6,1,0.6s0-1,0-1.2v-3.2c1.5-0.5,2.9-2,2.9-4.1V4.8c0-2.3-2.2-4.3-4.7-4.3
		H14.2z M13.6,13.4c0,0.7,0.5,1.2,1.2,1.2c0.7,0,1.2-0.5,1.2-1.2s-0.5-1.2-1.2-1.2C14.2,12.2,13.6,12.8,13.6,13.4z M16.8,13.4
		c0,0.7,0.5,1.2,1.2,1.2c0.7,0,1.2-0.5,1.2-1.2s-0.5-1.2-1.2-1.2C17.4,12.2,16.8,12.8,16.8,13.4z M20,13.4c0,0.7,0.5,1.2,1.2,1.2
		c0.7,0,1.2-0.5,1.2-1.2s-0.5-1.2-1.2-1.2C20.5,12.2,20,12.8,20,13.4z"/>
</g>
</svg>
