<?xml version="1.0" encoding="utf-8"?>
<!-- Generator: Adobe Illustrator 22.1.0, SVG Export Plug-In . SVG Version: 6.00 Build 0)  -->
<svg version="1.1" id="Layer_1" xmlns="http://www.w3.org/2000/svg" xmlns:xlink="http://www.w3.org/1999/xlink" x="0px" y="0px"
	 viewBox="0 0 50 50.2" style="enable-background:new 0 0 50 50.2;" xml:space="preserve">
<style type="text/css">
	.st0{fill:#ED1E24;}
</style>
<title>communication_tnp</title>
<path class="st0" d="M33.8,28.4l4.9-14.7c1.1-0.2,1.8-1.3,1.6-2.4C40,10.2,39,9.5,37.9,9.7c-0.8,0.2-1.4,0.8-1.6,1.6l-14.7,4.9
	L11.4,6c-0.4-0.4-1-0.4-1.4,0c0,0,0,0,0,0c-6.8,6.8-8.9,17.1-5.2,26H2c-0.6,0-1,0.4-1,1s0.4,1,1,1h3.7c2.6,5.1,7,9.1,12.3,11.2V48
	c0,0.6,0.4,1,1,1s1-0.4,1-1v-2.1c8.5,2.6,17.7,0.3,24-6c0.4-0.4,0.4-1,0-1.4L33.8,28.4z M32.2,26.8L28.4,23l7.6-7.6L32.2,26.8z
	 M34.6,14L27,21.6l-3.8-3.8L34.6,14z M11.4,38.6c-8.3-8.3-8.6-21.7-0.7-30.4l31.1,31.1C33.1,47.2,19.8,46.9,11.4,38.6z M40.9,15.3
	c1.7-1.7,1.7-4.5,0-6.2s-4.5-1.7-6.2,0c-0.4,0.4-1.1,0.3-1.4-0.1C33,8.6,33,8,33.3,7.7c2.5-2.5,6.6-2.5,9.1,0s2.5,6.6,0,9.1
	c-0.4,0.4-1,0.4-1.4,0S40.5,15.7,40.9,15.3z M45.2,21.1c-0.4,0.4-1.1,0.3-1.4-0.1c-0.3-0.4-0.3-0.9,0-1.3c3.7-3.7,3.7-9.8,0-13.5
	c-3.7-3.7-9.8-3.7-13.5,0c-0.4,0.4-1.1,0.3-1.4-0.1c-0.3-0.4-0.3-0.9,0-1.3c4.3-4.7,11.6-4.9,16.3-0.6s4.9,11.6,0.6,16.3
	C45.6,20.7,45.4,20.9,45.2,21.1L45.2,21.1z"/>
</svg>
