<?xml version="1.0" encoding="utf-8"?>
<!-- Generator: Adobe Illustrator 21.0.2, SVG Export Plug-In . SVG Version: 6.00 Build 0)  -->
<svg version="1.1"
	 id="Layer_1" xmlns:cc="http://creativecommons.org/ns#" xmlns:dc="http://purl.org/dc/elements/1.1/" xmlns:inkscape="http://www.inkscape.org/namespaces/inkscape" xmlns:rdf="http://www.w3.org/1999/02/22-rdf-syntax-ns#" xmlns:sodipodi="http://sodipodi.sourceforge.net/DTD/sodipodi-0.dtd" xmlns:svg="http://www.w3.org/2000/svg"
	 xmlns="http://www.w3.org/2000/svg" xmlns:xlink="http://www.w3.org/1999/xlink" x="0px" y="0px" viewBox="0 0 50 44.7"
	 style="enable-background:new 0 0 50 44.7;" xml:space="preserve">
<style type="text/css">
	.st0{fill:#FAFAFA;}
	.st1{fill:#FFFFFF;}
	.st2{fill:#37474F;}
	.st3{fill:none;}
	.st4{fill:#FFAB00;}
	.st5{fill:#FFECB3;}
	.st6{fill:#419BF9;}
	.st7{fill:#E2F5FD;}
	.st8{fill:#6360A9;}
	.st9{fill:#434343;}
	.st10{fill:#78909C;}
	.st11{fill:#B0BEC5;}
	.st12{fill:#B0BEC5;stroke:#37474F;stroke-width:3;stroke-linecap:round;stroke-linejoin:round;stroke-miterlimit:10;}
	.st13{fill:#020202;}
	.st14{fill:#1D67BD;}
	.st15{fill:#E2F5FD;stroke:#E2F5FD;stroke-width:0.75;stroke-miterlimit:10;}
	.st16{fill:#212221;}
	.st17{clip-path:url(#XMLID_5_);fill:#FFFFFF;}
	.st18{fill:#1288C9;}
	.st19{fill:#CE1F43;}
	.st20{fill:#F26F23;}
	.st21{fill:#FBB616;}
	.st22{fill:#0DB04B;}
	.st23{fill:#F9F9F9;}
	.st24{fill:none;stroke:#37474F;stroke-width:3;stroke-linecap:round;stroke-miterlimit:10;}
</style>
<g>
	<g>
		<g>
			<rect x="4" y="25.4" class="st7" width="17.5" height="17.5"/>
		</g>
		<g>
			<path class="st2" d="M21.5,44H4c-0.6,0-1.2-0.5-1.2-1.2V25.4c0-0.6,0.5-1.2,1.2-1.2h17.5c0.6,0,1.2,0.5,1.2,1.2v17.5
				C22.7,43.5,22.1,44,21.5,44z M5.2,41.7h15.1V26.5H5.2V41.7z"/>
		</g>
	</g>
	<g>
		<g>
			<g>
				<rect x="28.5" y="1.9" class="st7" width="17.5" height="17.5"/>
			</g>
		</g>
		<g>
			<path class="st2" d="M46,20.5H28.5c-0.6,0-1.2-0.5-1.2-1.2V1.9c0-0.6,0.5-1.2,1.2-1.2H46c0.6,0,1.2,0.5,1.2,1.2v17.5
				C47.1,20,46.6,20.5,46,20.5z M29.7,18.2h15.1V3H29.7V18.2z"/>
		</g>
	</g>
	<g>
		<g>
			<g>
				<rect x="28.5" y="25.4" class="st7" width="17.5" height="17.5"/>
			</g>
		</g>
		<g>
			<path class="st2" d="M46,44H28.5c-0.6,0-1.2-0.5-1.2-1.2V25.4c0-0.6,0.5-1.2,1.2-1.2H46c0.6,0,1.2,0.5,1.2,1.2v17.5
				C47.1,43.5,46.6,44,46,44z M29.7,41.7h15.1V26.5H29.7V41.7z"/>
		</g>
	</g>
	<g>
		<g>
			<g>
				<rect x="4" y="1.9" class="st6" width="17.5" height="17.5"/>
			</g>
			<g>
				<path class="st2" d="M21.5,20.5H4c-0.6,0-1.2-0.5-1.2-1.2V1.9c0-0.6,0.5-1.2,1.2-1.2h17.5c0.6,0,1.2,0.5,1.2,1.2v17.5
					C22.7,20,22.1,20.5,21.5,20.5z M5.2,18.2h15.1V3H5.2V18.2z"/>
			</g>
		</g>
		<g>
			<path class="st15" d="M10.2,15.8l-4.3-4.3c-0.2-0.2-0.2-0.5,0-0.7s0.5-0.2,0.7,0l3.6,3.6l8.8-8.8c0.2-0.2,0.5-0.2,0.7,0
				s0.2,0.5,0,0.7L10.2,15.8z"/>
		</g>
	</g>
</g>
</svg>
