<?xml version="1.0" encoding="utf-8"?>
<!-- Generator: Adobe Illustrator 22.1.0, SVG Export Plug-In . SVG Version: 6.00 Build 0)  -->
<svg version="1.1" id="Layer_1" xmlns="http://www.w3.org/2000/svg" xmlns:xlink="http://www.w3.org/1999/xlink" x="0px" y="0px"
	 viewBox="0 0 100 100.4" style="enable-background:new 0 0 100 100.4;" xml:space="preserve">
<style type="text/css">
	.st0{fill:#ED1E24;}
</style>
<path class="st0" d="M94,15.3h-9.3V6c0-0.8-0.5-1.5-1.2-1.8c-0.7-0.3-1.6-0.1-2.2,0.4l-8.6,8.6c-7.1-4.5-15.3-6.8-23.8-6.8
	C24.1,6.4,4,26.5,4,51.2S24.1,96,48.8,96s44.8-20.1,44.8-44.8c0-8.5-2.4-16.7-6.8-23.8l8.6-8.6c0.6-0.6,0.7-1.4,0.4-2.2
	C95.5,15.8,94.8,15.3,94,15.3z M89.6,51.2C89.6,73.7,71.3,92,48.8,92S8,73.7,8,51.2s18.3-40.8,40.8-40.8c7.4,0,14.6,2,20.9,5.8
	l-5.8,5.8c-0.4,0.4-0.6,0.9-0.6,1.4v4.3C59,25,54,23.5,48.8,23.5h0c-15.3,0-27.7,12.4-27.7,27.7s12.4,27.7,27.7,27.7
	c15.3,0,27.7-12.4,27.7-27.7c0-5.2-1.5-10.2-4.1-14.5h4.3c0.5,0,1-0.2,1.4-0.6l5.8-5.8C87.6,36.6,89.6,43.8,89.6,51.2z M63.3,33.8
	l-8.6,8.6c-1.7-1.1-3.7-1.8-5.9-1.8c-5.8,0-10.6,4.7-10.6,10.6S43,61.8,48.8,61.8c5.8,0,10.6-4.7,10.6-10.6c0-2.2-0.7-4.2-1.8-5.9
	l8.6-8.6h1.3c3.2,4.1,5,9.3,5,14.5c0,13.1-10.6,23.7-23.7,23.7c-13.1,0-23.7-10.6-23.7-23.7s10.6-23.7,23.7-23.7c0,0,0,0,0,0
	c5.3,0,10.4,1.8,14.5,5L63.3,33.8L63.3,33.8z M55.4,51.2c0,3.6-2.9,6.6-6.6,6.6s-6.6-2.9-6.6-6.6s2.9-6.6,6.6-6.6
	c1.1,0,2.1,0.3,3,0.7l-4.4,4.4c-0.8,0.8-0.8,2,0,2.8c0.4,0.4,0.9,0.6,1.4,0.6s1-0.2,1.4-0.6l4.4-4.4C55.1,49.1,55.4,50.1,55.4,51.2z
	 M82.8,25.7C82.8,25.7,82.8,25.7,82.8,25.7l-7,7h-8.5v-8.5l6.9-6.9c0,0,0.1-0.1,0.1-0.1l6.3-6.3v6.5c0,1.1,0.9,2,2,2h6.5L82.8,25.7z
	"/>
</svg>
