<?xml version="1.0" encoding="utf-8"?>
<!-- Generator: Adobe Illustrator 22.1.0, SVG Export Plug-In . SVG Version: 6.00 Build 0)  -->
<svg version="1.1" id="Layer_1" xmlns="http://www.w3.org/2000/svg" xmlns:xlink="http://www.w3.org/1999/xlink" x="0px" y="0px"
	 width="66.6px" height="59.4px" viewBox="0 0 66.6 59.4" style="enable-background:new 0 0 66.6 59.4;" xml:space="preserve">
<style type="text/css">
	.st0{fill:#738C82;stroke:#FFFFFF;stroke-width:0.75;stroke-miterlimit:10;}
</style>
<g>
	<g>
		<path class="st0" d="M42,14.8c-0.3-0.2-0.8-0.1-1.1,0.1l-3.4,2.8v-2c0-0.6-0.4-1-1-1H25c-0.6,0-1,0.4-1,1v12.4c0,0.6,0.4,1,1,1
			h11.4c0.6,0,1-0.4,1-1v-2l3.5,2.8c0.2,0.1,0.4,0.2,0.6,0.2c0.1,0,0.3,0,0.4-0.1c0.3-0.2,0.6-0.5,0.6-0.9V15.8
			C42.6,15.3,42.4,15,42,14.8z M40.5,26L37,23.2c-0.3-0.2-0.7-0.3-1.1-0.1c-0.3,0.2-0.5,0.5-0.5,0.9v3.1h-9.3V16.8h9.3v3.1
			c0,0.4,0.2,0.7,0.6,0.9c0.3,0.2,0.8,0.1,1.1-0.1l3.5-2.8V26H40.5z"/>
		<path class="st0" d="M61.2,2.3H5.4c-1.8,0-3.1,1.3-3.1,3.1v39.3c0,1.8,1.3,3.1,3.1,3.1h20.7c-0.2,3.9-1.9,5.7-3.8,7.5
			c-0.3,0.3-0.4,0.7-0.2,1.1c0.2,0.4,0.5,0.6,0.9,0.6h20.7c0.4,0,0.8-0.2,0.9-0.6c0.2-0.4,0.1-0.8-0.2-1.1c-1.9-1.9-3.5-3.5-3.8-7.5
			h20.7c1.8,0,3.1-1.3,3.1-3.1V5.4C64.3,3.7,63,2.3,61.2,2.3z M5.4,4.4h55.8c0.6,0,1,0.4,1,1v34.1H4.4V5.4C4.4,4.8,4.8,4.4,5.4,4.4z
			 M41.3,55H25.3c1.3-1.7,2.6-3.7,2.7-7.2h10.4C38.7,51.3,39.9,53.4,41.3,55z M61.2,45.7H5.4c-0.6,0-1-0.4-1-1v-3.1h57.9v3.1
			C62.2,45.3,61.8,45.7,61.2,45.7z"/>
		<path class="st0" d="M7.5,37.5h51.7c0.6,0,1-0.4,1-1V7.5c0-0.6-0.4-1-1-1H7.5c-0.6,0-1,0.4-1,1v28.9C6.4,37,6.8,37.5,7.5,37.5z
			 M8.5,8.5h49.6v26.9H8.5V8.5z"/>
	</g>
</g>
</svg>
