<?xml version="1.0" encoding="utf-8"?>
<!-- Generator: Adobe Illustrator 22.1.0, SVG Export Plug-In . SVG Version: 6.00 Build 0)  -->
<svg version="1.1" id="Layer_1" xmlns="http://www.w3.org/2000/svg" xmlns:xlink="http://www.w3.org/1999/xlink" x="0px" y="0px"
	 width="66.6px" height="59.4px" viewBox="0 0 66.6 59.4" style="enable-background:new 0 0 66.6 59.4;" xml:space="preserve">
<style type="text/css">
	.st0{fill:#738C82;}
</style>
<circle class="st0" cx="13" cy="7.1" r="1.6"/>
<circle class="st0" cx="18.3" cy="7.1" r="1.6"/>
<circle class="st0" cx="23.6" cy="7.1" r="1.6"/>
<path class="st0" d="M58.2,2.2H9.8c-1.9,0-3.5,1.6-3.5,3.5v48.5c0,1.9,1.6,3.5,3.5,3.5h48.5c1.9,0,3.5-1.6,3.5-3.5V5.8
	C61.8,3.8,60.2,2.2,58.2,2.2z M60.1,54.2c0,1-0.8,1.9-1.9,1.9H9.8c-1,0-1.9-0.8-1.9-1.9V11.9h52.3C60.1,11.9,60.1,54.2,60.1,54.2z
	 M60.1,10.3H7.9V5.8c0-1,0.8-1.9,1.9-1.9h48.5c1,0,1.9,0.8,1.9,1.9V10.3z"/>
<path class="st0" d="M15.1,49.5h37.7c0.4,0,0.6-0.3,0.6-0.6V35.4c0-0.4-0.3-0.6-0.6-0.6H15.1c-0.4,0-0.6,0.3-0.6,0.6v13.5
	C14.5,49.2,14.8,49.5,15.1,49.5z M15.8,36h36.4v12.2H15.8V36z"/>
<path class="st0" d="M36.7,30.6h16.2c0.4,0,0.6-0.3,0.6-0.6V19.2c0-0.4-0.3-0.6-0.6-0.6H36.7c-0.4,0-0.6,0.3-0.6,0.6V30
	C36,30.4,36.3,30.6,36.7,30.6z M37.3,19.9h14.9v9.5H37.3V19.9z"/>
<path class="st0" d="M15.1,20.4h16.2c0.4,0,0.6-0.3,0.6-0.6c0-0.4-0.3-0.6-0.6-0.6H15.1c-0.4,0-0.6,0.3-0.6,0.6
	C14.5,20.1,14.8,20.4,15.1,20.4z"/>
<path class="st0" d="M15.1,23.6h16.2c0.4,0,0.6-0.3,0.6-0.6c0-0.4-0.3-0.6-0.6-0.6H15.1c-0.4,0-0.6,0.3-0.6,0.6
	C14.5,23.4,14.8,23.6,15.1,23.6z"/>
<path class="st0" d="M15.1,26.9h16.2c0.4,0,0.6-0.3,0.6-0.6s-0.3-0.6-0.6-0.6H15.1c-0.4,0-0.6,0.3-0.6,0.6S14.8,26.9,15.1,26.9z"/>
<path class="st0" d="M15.1,30.1h16.2c0.4,0,0.6-0.3,0.6-0.6c0-0.4-0.3-0.6-0.6-0.6H15.1c-0.4,0-0.6,0.3-0.6,0.6
	C14.5,29.8,14.8,30.1,15.1,30.1z"/>
<path class="st0" d="M55.6,6.3H36.7c-0.4,0-0.8,0.4-0.8,0.8c0,0.4,0.4,0.8,0.8,0.8h18.9c0.4,0,0.8-0.4,0.8-0.8
	C56.4,6.7,56,6.3,55.6,6.3z"/>
</svg>
