<?xml version="1.0" encoding="utf-8"?>
<!-- Generator: Adobe Illustrator 21.0.2, SVG Export Plug-In . SVG Version: 6.00 Build 0)  -->
<svg version="1.1" id="Layer_1" xmlns="http://www.w3.org/2000/svg" xmlns:xlink="http://www.w3.org/1999/xlink" x="0px" y="0px"
	 viewBox="0 0 34 34" style="enable-background:new 0 0 34 34;" xml:space="preserve">
<style type="text/css">
	.st0{fill:#ED1E24;}
</style>
<title>edit-screen</title>
<desc>Created with Sketch.</desc>
<g id="Page-1">
	<path id="edit-screen" class="st0" d="M24.2,8.3L27,5.5c0,0,1.7-1.2,4.4,1.4s1.4,4.3,1.4,4.3l-8.7,8.7v7.2c0,1.8-1,2.9-2.5,2.9
		h-7.5c-0.2,0.2-0.8,0.5-1.3,0.3c-3.5,1.5-7.1,2.9-7.1,2.9S5.4,33.3,5.2,33c-0.2-0.2-0.1-0.6-0.1-0.6s0.4-1,1.1-2.5H2.9
		C1.2,30,0,28.8,0,27.1V2.9C0,1.2,1.2,0,2.8,0h18.9c1.5,0,2.5,1.1,2.5,2.9V8.3z M22.8,9.7v-4H6.5v22.7h0.4c0.4-0.9,0.8-1.9,1.2-2.9
		c-0.1-1.2,0.5-1.5,0.5-1.5L22.8,9.7z M22.8,21.4l-7,7h6c0.5,0,1-0.4,1-1V21.4z M1.5,3v1.5h3.8v-3H3C2.2,1.5,1.5,2.2,1.5,3z M1.5,25
		v1.8c0,1,0.8,1.8,1.7,1.8h2V25H1.5z M1.5,5.7v18.2h3.8V5.7H1.5z M6.5,1.5v3h16.3V3c0-0.8-0.7-1.5-1.5-1.5H6.5z M14,10
		c-0.6,0-1-0.4-1-1s0.4-1,1-1s1,0.4,1,1S14.6,10,14,10z M17,10c-0.6,0-1-0.4-1-1s0.4-1,1-1s1,0.4,1,1S17.6,10,17,10z M11,10
		c-0.6,0-1-0.4-1-1s0.4-1,1-1s1,0.4,1,1S11.6,10,11,10z M8.5,30.9l2.9-1.1c0,0-0.8-0.4-1.5-1.1c-0.7-0.7-1.3-1.6-1.3-1.6l-1.2,2.7
		L8.5,30.9z M30.8,11.9l1.2-1.2c0,0,0.6-1.3-1.4-3.1s-2.9-1.3-2.9-1.3l-1.3,1.3c0,0,1.2,0.2,2.6,1.5S30.8,11.9,30.8,11.9z M9.4,26.1
		l17-17.3c0,0-0.9-0.6-1.2,0c-0.8,1-8,8-15.6,15.7C9,25.2,9.4,26.1,9.4,26.1z M12.4,27.6l16-16.1c0,0,0.7-0.8,0-1.5
		c-0.7-0.7-1.7,0.2-1.7,0.2L10.6,26.3c0,0-0.4,0.8,0.3,1.4C11.6,28.3,12.4,27.6,12.4,27.6z M12.6,29.1c0,0,0.9,0.2,1.4-0.3
		c2.6-2.5,7.8-7.8,15.7-15.7c0.5-0.6,0-1.1,0-1.1L12.6,29.1z"/>
</g>
</svg>
