<?xml version="1.0" encoding="utf-8"?>
<!-- Generator: Adobe Illustrator 22.1.0, SVG Export Plug-In . SVG Version: 6.00 Build 0)  -->
<svg version="1.1" id="Layer_1" xmlns="http://www.w3.org/2000/svg" xmlns:xlink="http://www.w3.org/1999/xlink" x="0px" y="0px"
	 viewBox="0 0 512 510" style="enable-background:new 0 0 512 510;" xml:space="preserve">
<style type="text/css">
	.st0{fill:#ED1E24;}
</style>
<g>
	<path class="st0" d="M321.9,177.1c6.5,4.1,14.1,6.6,22.4,6.6c23,0,41.8-18.7,41.8-41.8s-18.7-41.8-41.8-41.8
		c-23,0-41.8,18.7-41.8,41.8c0,8.9,2.8,17.1,7.6,23.9l-65.7,65.6l-151-151l-5.8,6.2c-38.6,41-59.8,94.7-59.8,151
		c0,77.8,40.5,146.3,101.5,185.7C103.8,435,82.6,455.1,70,480.4L55.1,510h251.4l-14.8-29.6c-4.3-8.5-9.6-16.4-15.6-23.6
		c46.1-5.8,89.2-25.8,123.6-58.1l6.2-5.8L256,243L321.9,177.1z M344.3,116.5c14,0,25.4,11.4,25.4,25.4s-11.4,25.4-25.4,25.4
		s-25.4-11.4-25.4-25.4S330.3,116.5,344.3,116.5z M277.1,487.7l3,5.9H81.6l3-5.9c12.8-25.5,35.5-45,62.6-54
		c30.4,15.8,64.9,24.8,101.4,24.8c2.2,0,4.5-0.1,6.7-0.2C264.3,466.9,271.6,476.7,277.1,487.7z M248.6,442.1
		c-112.8,0-204.5-91.7-204.5-204.5c0-35.6,9.3-70,26.5-100.4L349,415.7C318.6,432.8,284.2,442.1,248.6,442.1z M382.2,392.4
		c-6.1,5.2-12.5,9.9-19,14.4L79.5,123c4.5-6.5,9.2-13,14.4-19L382.2,392.4z"/>
	<path class="st0" d="M467.9,141.9c0,33-12.9,64-36.2,87.4c-23.3,23.3-54.4,36.2-87.4,36.2l0,0v16.4l0,0c37.4,0,72.5-14.6,99-41
		c26.4-26.4,41-61.6,41-99H467.9z"/>
	<path class="st0" d="M256.9,54.6c23.3-23.3,54.4-36.2,87.4-36.2V2c-37.4,0-72.5,14.6-99,41c-26.4,26.4-41,61.6-41,99h16.4
		C220.7,108.9,233.6,77.9,256.9,54.6z"/>
	<path class="st0" d="M344.3,216.4v16.4l0,0c24.3,0,47.1-9.5,64.2-26.6c17.2-17.2,26.6-40,26.6-64.2h-16.4
		c0,19.9-7.7,38.6-21.8,52.7C382.9,208.7,364.2,216.4,344.3,216.4L344.3,216.4z"/>
	<path class="st0" d="M269.8,141.9c0-19.9,7.7-38.6,21.8-52.7c14.1-14.1,32.8-21.8,52.7-21.8V51.1c-24.3,0-47.1,9.5-64.2,26.6
		c-17.2,17.2-26.6,40-26.6,64.2H269.8z"/>
</g>
</svg>
