<?xml version="1.0" encoding="utf-8"?>
<!-- Generator: Adobe Illustrator 21.0.2, SVG Export Plug-In . SVG Version: 6.00 Build 0)  -->
<svg version="1.1" id="Layer_1" xmlns="http://www.w3.org/2000/svg" xmlns:xlink="http://www.w3.org/1999/xlink" x="0px" y="0px"
	 viewBox="0 0 32 31" style="enable-background:new 0 0 32 31;" xml:space="preserve">
<style type="text/css">
	.st0{fill:#ED1E24;}
</style>
<title>script</title>
<desc>Created with Sketch.</desc>
<g>
	<path class="st0" d="M22,19H10c-0.4,0-0.7,0.3-0.7,0.7c0,0.4,0.3,0.7,0.7,0.7h12c0.4,0,0.7-0.3,0.7-0.7C22.6,19.4,22.3,19,22,19z"
		/>
	<path class="st0" d="M22,14.6H10c-0.4,0-0.7,0.3-0.7,0.7c0,0.4,0.3,0.7,0.7,0.7h12c0.4,0,0.7-0.3,0.7-0.7
		C22.6,14.9,22.3,14.6,22,14.6z"/>
	<path class="st0" d="M9.4,10.9c0,0.4,0.3,0.7,0.7,0.7h12c0.4,0,0.7-0.3,0.7-0.7c0-0.4-0.3-0.7-0.7-0.7H10
		C9.7,10.2,9.4,10.5,9.4,10.9z"/>
	<path class="st0" d="M22,23.5H10c-0.4,0-0.7,0.3-0.7,0.7c0,0.4,0.3,0.7,0.7,0.7h12c0.4,0,0.7-0.3,0.7-0.7
		C22.6,23.8,22.3,23.5,22,23.5z"/>
	<path class="st0" d="M27.8,0.4c-0.3,0-0.6,0-0.9,0.1c-0.1-0.1-0.2-0.1-0.4-0.1l-16.2,0c-3,0.5-4,2.7-4,4.5v15.8H1.2
		c-0.4,0-0.7,0.3-0.7,0.7v5.3c0,1.9,1.5,3.4,3.5,3.5c0.1,0.1,0.2,0.1,0.4,0.1h16.8c1.5,0,2.6-0.3,3.4-0.8c0.8-0.5,1.1-1.3,1.1-2.4
		V9.3h5.2c0.4,0,0.7-0.3,0.7-0.7V3.9C31.5,1.9,29.9,0.4,27.8,0.4z M6.4,25.1v1.7c0,1.2-1,2.1-2.2,2.1C3,28.9,2,28,2,26.8v-4.6h4.4
		V25.1z M24.1,3.9v23.3c0,0.7-0.3,1-0.5,1.2c-0.5,0.4-1.3,0.5-2.5,0.5h0h-14c0.5-0.6,0.8-1.4,0.8-2.2V4.9c0-0.4,0.1-2.7,2.7-3.1
		h14.3C24.4,2.4,24.1,3.1,24.1,3.9z M30,7.9h-4.4v-4c0-1.2,1-2.1,2.2-2.1c1.2,0,2.2,1,2.2,2.1V7.9z"/>
	<path class="st0" d="M11.7,6.2c0.3,0,0.5-0.1,0.7-0.3c0.2-0.2,0.3-0.5,0.3-0.7c0-0.3-0.1-0.6-0.3-0.8C12.1,4,11.3,4,11,4.4
		c-0.2,0.2-0.3,0.5-0.3,0.7C10.7,5.7,11.1,6.2,11.7,6.2z"/>
	<path class="st0" d="M15.7,6.2c0.6,0,1-0.5,1-1.1c0-0.5-0.5-1-1-1c-0.6,0-1,0.5-1,1C14.7,5.7,15.2,6.2,15.7,6.2z"/>
	<path class="st0" d="M19.8,6.2c0.3,0,0.5-0.1,0.7-0.3c0.2-0.2,0.3-0.5,0.3-0.7c0-0.5-0.4-1-1-1.1c-0.6,0-1,0.5-1,1
		c0,0.3,0.1,0.5,0.3,0.7C19.2,6.1,19.5,6.2,19.8,6.2z"/>
</g>
</svg>
