<?xml version="1.0" encoding="utf-8"?>
<!-- Generator: Adobe Illustrator 21.0.2, SVG Export Plug-In . SVG Version: 6.00 Build 0)  -->
<svg version="1.1"
	 id="Layer_1" xmlns:cc="http://creativecommons.org/ns#" xmlns:dc="http://purl.org/dc/elements/1.1/" xmlns:inkscape="http://www.inkscape.org/namespaces/inkscape" xmlns:rdf="http://www.w3.org/1999/02/22-rdf-syntax-ns#" xmlns:sodipodi="http://sodipodi.sourceforge.net/DTD/sodipodi-0.dtd" xmlns:svg="http://www.w3.org/2000/svg"
	 xmlns="http://www.w3.org/2000/svg" xmlns:xlink="http://www.w3.org/1999/xlink" x="0px" y="0px" viewBox="0 0 50 50"
	 style="enable-background:new 0 0 50 50;" xml:space="preserve">
<style type="text/css">
	.st0{fill:#FAFAFA;}
	.st1{fill:#FFFFFF;}
	.st2{fill:#37474F;}
	.st3{fill:none;}
	.st4{fill:#FFAB00;}
	.st5{fill:#FFECB3;}
	.st6{fill:#419BF9;}
	.st7{fill:#E2F5FD;}
	.st8{fill:#6360A9;}
	.st9{fill:#434343;}
	.st10{fill:#78909C;}
	.st11{fill:#B0BEC5;}
	.st12{fill:#B0BEC5;stroke:#37474F;stroke-width:3;stroke-linecap:round;stroke-linejoin:round;stroke-miterlimit:10;}
	.st13{fill:#020202;}
	.st14{fill:#1D67BD;}
	.st15{fill:#E2F5FD;stroke:#E2F5FD;stroke-width:0.75;stroke-miterlimit:10;}
	.st16{fill:#212221;}
	.st17{clip-path:url(#XMLID_5_);fill:#FFFFFF;}
	.st18{fill:#1288C9;}
	.st19{fill:#CE1F43;}
	.st20{fill:#F26F23;}
	.st21{fill:#FBB616;}
	.st22{fill:#0DB04B;}
	.st23{fill:#F9F9F9;}
	.st24{fill:none;stroke:#37474F;stroke-width:3;stroke-linecap:round;stroke-miterlimit:10;}
</style>
<circle class="st7" cx="25" cy="25" r="24.1"/>
<path class="st2" d="M25,50C11.2,50,0,38.9,0,25C0,11.3,11.2,0,25,0c13.8,0,25,11.2,25,25C50,38.9,38.8,50,25,50z M25,1.8
	C12.1,1.8,1.8,12.2,1.8,25S12.2,48.3,25,48.3S48.2,37.9,48.2,25S37.8,1.8,25,1.8z"/>
<path class="st14" d="M22.6,21.4c0.5,0,0.8,0.4,0.8,0.8c0,0.5-0.4,0.8-0.8,0.8h-9.7l2.5,2.5c0.3,0.3,0.3,0.8,0,1.2
	c-0.3,0.3-0.8,0.3-1.2,0l-3.9-3.9c-0.3-0.3-0.3-0.8,0-1.2l3.9-3.9c0.3-0.3,0.8-0.3,1.2,0c0.3,0.3,0.3,0.8,0,1.2l-2.5,2.5L22.6,21.4z
	 M21.1,9.3c-0.3,0.3-0.3,0.8,0,1.2l2.5,2.5l-9.7,0c-0.5,0-0.8,0.4-0.8,0.8c0,0.5,0.4,0.8,0.8,0.8l9.7,0l-2.5,2.5
	c-0.3,0.3-0.3,0.8,0,1.2c0.3,0.3,0.8,0.3,1.2,0l3.9-3.9c0.3-0.3,0.3-0.8,0-1.2l-3.9-3.9C21.9,9,21.4,9,21.1,9.3z"/>
<g>
	<g>
		<g>
			
				<rect x="21.9" y="22" transform="matrix(0.7071 -0.7071 0.7071 0.7071 -13.7924 33.1535)" class="st14" width="22.5" height="22.5"/>
			<path class="st2" d="M33.1,50c-0.2,0-0.4-0.1-0.6-0.3L16.6,33.8c-0.2-0.2-0.3-0.4-0.3-0.6c0-0.2,0.1-0.4,0.3-0.6l15.9-15.9
				c0.2-0.2,0.4-0.3,0.6-0.3l0,0c0.2,0,0.4,0.1,0.6,0.3l15.9,15.9c0.4,0.4,0.4,0.9,0,1.2L33.8,49.7C33.6,49.9,33.4,50,33.1,50z
				 M18.5,33.2l14.7,14.7l14.7-14.7L33.1,18.5L18.5,33.2z"/>
		</g>
	</g>
	<path class="st7" d="M36.8,29.5c-0.3-0.3-0.8-0.3-1.1,0l-2.6,2.6l-2.6-2.6c-0.3-0.3-0.8-0.3-1.1,0c-0.3,0.3-0.3,0.8,0,1.1l2.6,2.6
		l-2.6,2.6c-0.3,0.3-0.3,0.8,0,1.1c0.3,0.3,0.8,0.3,1.1,0l2.6-2.6l2.6,2.6c0.3,0.3,0.8,0.3,1.1,0c0.3-0.3,0.3-0.8,0-1.1l-2.6-2.6
		l2.6-2.6C37.1,30.3,37.1,29.8,36.8,29.5L36.8,29.5z"/>
</g>
</svg>
