<?xml version="1.0" encoding="utf-8"?>
<!-- Generator: Adobe Illustrator 21.0.2, SVG Export Plug-In . SVG Version: 6.00 Build 0)  -->
<svg version="1.1"
	 id="Layer_1" xmlns:cc="http://creativecommons.org/ns#" xmlns:dc="http://purl.org/dc/elements/1.1/" xmlns:inkscape="http://www.inkscape.org/namespaces/inkscape" xmlns:rdf="http://www.w3.org/1999/02/22-rdf-syntax-ns#" xmlns:sodipodi="http://sodipodi.sourceforge.net/DTD/sodipodi-0.dtd" xmlns:svg="http://www.w3.org/2000/svg"
	 xmlns="http://www.w3.org/2000/svg" xmlns:xlink="http://www.w3.org/1999/xlink" x="0px" y="0px" viewBox="0 0 50 33.2"
	 style="enable-background:new 0 0 50 33.2;" xml:space="preserve">
<style type="text/css">
	.st0{fill:#FAFAFA;}
	.st1{fill:#FFFFFF;}
	.st2{fill:#37474F;}
	.st3{fill:none;}
	.st4{fill:#FFAB00;}
	.st5{fill:#FFECB3;}
	.st6{fill:#419BF9;}
	.st7{fill:#E2F5FD;}
	.st8{fill:#6360A9;}
	.st9{fill:#434343;}
	.st10{fill:#78909C;}
	.st11{fill:#B0BEC5;}
	.st12{fill:#B0BEC5;stroke:#37474F;stroke-width:3;stroke-linecap:round;stroke-linejoin:round;stroke-miterlimit:10;}
	.st13{fill:#020202;}
	.st14{fill:#1D67BD;}
	.st15{fill:#E2F5FD;stroke:#E2F5FD;stroke-width:0.75;stroke-miterlimit:10;}
	.st16{fill:#212221;}
	.st17{clip-path:url(#XMLID_5_);fill:#FFFFFF;}
	.st18{fill:#1288C9;}
	.st19{fill:#CE1F43;}
	.st20{fill:#F26F23;}
	.st21{fill:#FBB616;}
	.st22{fill:#0DB04B;}
	.st23{fill:#F9F9F9;}
	.st24{fill:none;stroke:#37474F;stroke-width:3;stroke-linecap:round;stroke-miterlimit:10;}
</style>
<g>
	<g>
		<polygon class="st7" points="28.6,5.1 24.8,0.8 4.3,0.8 4.3,5.2 4.3,10.4 4.3,32.4 45.7,32.4 45.7,5.1 		"/>
		<path class="st2" d="M45.7,33.2H4.3c-0.4,0-0.8-0.4-0.8-0.8V0.8C3.5,0.4,3.9,0,4.3,0h20.5c0.2,0,0.4,0.1,0.6,0.3l3.6,4h16.7
			c0.4,0,0.8,0.4,0.8,0.8v27.3C46.5,32.9,46.1,33.2,45.7,33.2z M5.1,31.6h39.8V5.9H28.6c-0.2,0-0.4-0.1-0.6-0.3l-3.6-4H5.1V31.6z"/>
	</g>
	<g>
		<path class="st2" d="M30.9,5.9H20.3c-0.4,0-0.8-0.4-0.8-0.8s0.4-0.8,0.8-0.8h10.5c0.4,0,0.8,0.4,0.8,0.8S31.3,5.9,30.9,5.9z"/>
	</g>
	<g>
		<path class="st2" d="M49.2,33.2H0.8c-0.4,0-0.8-0.4-0.8-0.8c0-0.4,0.4-0.8,0.8-0.8h48.4c0.4,0,0.8,0.4,0.8,0.8
			C50,32.9,49.6,33.2,49.2,33.2z"/>
	</g>
	<polyline class="st6" points="35.4,28.3 38.9,22.6 42.3,28.3 	"/>
	<path class="st2" d="M42.3,29.1c-0.3,0-0.5-0.1-0.7-0.4l-2.8-4.6l-2.8,4.6c-0.2,0.4-0.7,0.5-1.1,0.3c-0.4-0.2-0.5-0.7-0.3-1.1
		l3.4-5.7c0.2-0.2,0.4-0.4,0.7-0.4c0.3,0,0.5,0.2,0.7,0.4l3.4,5.7c0.2,0.4,0.1,0.9-0.3,1.1C42.6,29,42.5,29.1,42.3,29.1z"/>
	<g>
		<polyline class="st6" points="35.4,22.1 38.9,16.5 42.3,22.1 		"/>
		<path class="st2" d="M42.3,22.9c-0.3,0-0.5-0.1-0.7-0.4L38.9,18l-2.8,4.6c-0.2,0.4-0.7,0.5-1.1,0.3c-0.4-0.2-0.5-0.7-0.3-1.1
			l3.4-5.7c0.2-0.2,0.4-0.4,0.7-0.4s0.5,0.2,0.7,0.4l3.4,5.7c0.2,0.4,0.1,0.9-0.3,1.1C42.6,22.9,42.5,22.9,42.3,22.9z"/>
	</g>
	<g>
		<polyline class="st6" points="35.4,16 38.9,10.4 42.3,16 		"/>
		<path class="st2" d="M42.3,16.8c-0.3,0-0.5-0.1-0.7-0.4l-2.8-4.6l-2.8,4.6c-0.2,0.4-0.7,0.5-1.1,0.3c-0.4-0.2-0.5-0.7-0.3-1.1
			l3.4-5.7c0.2-0.2,0.4-0.4,0.7-0.4s0.5,0.2,0.7,0.4l3.4,5.7c0.2,0.4,0.1,0.9-0.3,1.1C42.6,16.8,42.5,16.8,42.3,16.8z"/>
	</g>
</g>
</svg>
