<?xml version="1.0" encoding="utf-8"?>
<!-- Generator: Adobe Illustrator 21.0.2, SVG Export Plug-In . SVG Version: 6.00 Build 0)  -->
<svg version="1.1"
	 id="Layer_1" xmlns:cc="http://creativecommons.org/ns#" xmlns:dc="http://purl.org/dc/elements/1.1/" xmlns:inkscape="http://www.inkscape.org/namespaces/inkscape" xmlns:rdf="http://www.w3.org/1999/02/22-rdf-syntax-ns#" xmlns:sodipodi="http://sodipodi.sourceforge.net/DTD/sodipodi-0.dtd" xmlns:svg="http://www.w3.org/2000/svg"
	 xmlns="http://www.w3.org/2000/svg" xmlns:xlink="http://www.w3.org/1999/xlink" x="0px" y="0px" viewBox="0 0 50 50.7"
	 style="enable-background:new 0 0 50 50.7;" xml:space="preserve">
<style type="text/css">
	.st0{fill:#FAFAFA;}
	.st1{fill:#FFFFFF;}
	.st2{fill:#37474F;}
	.st3{fill:none;}
	.st4{fill:#FFAB00;}
	.st5{fill:#FFECB3;}
	.st6{fill:#419BF9;}
	.st7{fill:#6360A9;}
	.st8{fill:#434343;}
	.st9{fill:#78909C;}
	.st10{fill:#B0BEC5;}
	.st11{fill:#B0BEC5;stroke:#37474F;stroke-width:3;stroke-linecap:round;stroke-linejoin:round;stroke-miterlimit:10;}
	.st12{fill:#020202;}
	.st13{fill:#E2F5FD;}
	.st14{fill:#1D67BD;}
	.st15{fill:#37474F;stroke:#37474F;stroke-miterlimit:10;}
	.st16{fill:#212221;}
	.st17{clip-path:url(#XMLID_5_);fill:#FFFFFF;}
	.st18{fill:#1288C9;}
	.st19{fill:#CE1F43;}
	.st20{fill:#F26F23;}
	.st21{fill:#FBB616;}
	.st22{fill:#0DB04B;}
	.st23{fill:#F9F9F9;}
	.st24{fill:none;stroke:#37474F;stroke-width:3;stroke-linecap:round;stroke-miterlimit:10;}
</style>
<g>
	<g id="Layer_2_10_">
		<g>
			<path class="st14" d="M40.5,2.3c-3.9,0-7.1,3.2-7.1,7.1s3.2,7.2,7.1,7.2s7.1-3.2,7.1-7.1S44.4,2.3,40.5,2.3z M44,10.1h-3v3h-1.2
				v-3h-3V8.9h3v-3h1.2v3h3V10.1z"/>
			<path class="st2" d="M40.5,1.7c-4.3,0-7.8,3.5-7.8,7.8s3.5,7.8,7.8,7.8s7.8-3.5,7.8-7.8S44.8,1.7,40.5,1.7z M40.5,16.6
				c-3.9,0-7.1-3.2-7.1-7.1s3.2-7.2,7.1-7.2s7.1,3.3,7.1,7.2S44.4,16.6,40.5,16.6z"/>
			<path class="st1" d="M40.5,0C35.3,0,31,4.2,31,9.4s4.3,9.5,9.5,9.5S50,14.7,50,9.4S45.7,0,40.5,0z M40.5,17.3
				c-4.3,0-7.8-3.5-7.8-7.8s3.5-7.8,7.8-7.8s7.8,3.5,7.8,7.8S44.8,17.3,40.5,17.3z"/>
			<polygon class="st1" points="41.1,6 39.9,6 39.9,8.9 37,8.9 37,10.1 39.9,10.1 39.9,13 41.1,13 41.1,10.1 44,10.1 44,8.9 
				41.1,8.9 			"/>
		</g>
	</g>
	<g>
		<g>
			<path class="st13" d="M39.9,49.2c-1.6-9.1-9.6-16-19-16s-17.3,6.9-19,16H39.9z"/>
			<path class="st2" d="M41.7,50.7H0l0.3-1.8c1.8-10,10.5-17.2,20.5-17.2s18.7,7.3,20.5,17.2L41.7,50.7z M3.7,47.7H38
				c-2.2-7.7-9.2-13-17.1-13S5.9,40,3.7,47.7z"/>
		</g>
		<g>
			<path class="st1" d="M30.4,26c0,5.5-4.5,10.1-10.1,10.1l0,0c-5.5,0-10.1-4.5-10.1-10.1v-5c0-5.5,4.5-10.1,10.1-10.1l0,0
				c5.5,0,10.1,4.5,10.1,10.1C30.4,21,30.4,26,30.4,26z"/>
			<path class="st2" d="M20.3,37.6C14,37.6,8.8,32.4,8.8,26v-5c0-6.3,5.2-11.6,11.6-11.6S31.9,14.7,31.9,21v5
				C31.9,32.4,26.7,37.6,20.3,37.6z M20.3,12.4c-4.7,0-8.6,3.8-8.6,8.6v5c0,4.7,3.8,8.6,8.6,8.6s8.6-3.8,8.6-8.6v-5
				C28.9,16.3,25.1,12.4,20.3,12.4z"/>
		</g>
		<g>
			<path class="st2" d="M14,21.3c3.7-0.3,8.5-1.3,11.4-4c0,0,1.3,1.6,3.6,2.8c0.9-0.8,1.5-1.6,1.5-2.6V15c0-2.8-4.5-5.1-10.1-5.1
				S10.4,12.1,10.4,15v2.5C10.3,19,12,20.3,14,21.3z"/>
			<path class="st2" d="M14,22.8c-0.2,0-0.4,0-0.6-0.1c-3-1.5-4.6-3.2-4.6-5.2V15c0-3.8,4.9-6.6,11.6-6.6s11.6,2.8,11.6,6.6v2.5
				c0,1.4-0.7,2.6-2,3.8c-0.5,0.4-1.1,0.5-1.7,0.2c-1.3-0.7-2.3-1.5-3-2.1C22,21.7,17.4,22.6,14,22.8C14.1,22.8,14,22.8,14,22.8z
				 M20.3,11.3c-5.3,0-8.6,2.1-8.6,3.6v2.5c0,0.5,0.8,1.4,2.5,2.2c3.2-0.3,7.5-1.2,10.1-3.6c0.3-0.3,0.7-0.4,1.1-0.4
				s0.8,0.2,1.1,0.5c0,0,0.8,1,2.2,1.9c0.1-0.2,0.2-0.5,0.2-0.7v-2.5C28.9,13.2,25.2,11.3,20.3,11.3z"/>
		</g>
	</g>
</g>
</svg>
