<?xml version="1.0" encoding="utf-8"?>
<!-- Generator: Adobe Illustrator 21.0.2, SVG Export Plug-In . SVG Version: 6.00 Build 0)  -->
<svg version="1.1" id="Layer_1" xmlns="http://www.w3.org/2000/svg" xmlns:xlink="http://www.w3.org/1999/xlink" x="0px" y="0px"
	 viewBox="0 0 31 31" style="enable-background:new 0 0 31 31;" xml:space="preserve">
<style type="text/css">
	.st0{fill:#ED1E24;}
</style>
<title>wireframe</title>
<desc>Created with Sketch.</desc>
<g id="Page-1">
	<path id="wireframe" class="st0" d="M3.3,0.5h24.1c1.8,0,3.3,1.5,3.3,3.3v23.4c0,0.1,0,0.2,0,0.3c0,0.1,0,0.2,0,0.3
		c-0.3,1.6-1.3,2.7-2.7,2.7H2.8c-1.5,0-2.6-1.2-2.8-3c0-0.1,0-0.2,0-0.3V3.8C0,2,1.5,0.5,3.3,0.5z M3.3,29.1h24.1
		c0.9,0,1.7-0.6,1.9-1.5c0,0,0-0.1,0-0.1c0,0,0-0.1,0-0.1c0-0.2,0-0.3,0-0.4V5.7h-28V27c0,0.1,0,0.1,0,0.2
		C1.4,28.3,2.3,29.1,3.3,29.1z M3.3,1.9h24.1c1.1,0,1.9,0.9,1.9,1.9v0.5h-28V3.8C1.4,2.8,2.3,1.9,3.3,1.9z M14.7,14.4
		c0.4,0,0.7-0.3,0.7-0.7V9.5h9.8v4.2c0,0.4,0.3,0.7,0.7,0.7c0.4,0,0.7-0.3,0.7-0.7V8.8c0-0.4-0.3-0.7-0.7-0.7H14.7
		c-0.4,0-0.7,0.3-0.7,0.7v4.9C14,14.1,14.3,14.4,14.7,14.4 M26.6,16.5H15.4c-0.4,0-0.7,0.3-0.7,0.7s0.3,0.7,0.7,0.7h11.2
		c0.4,0,0.7-0.3,0.7-0.7S26.9,16.5,26.6,16.5 M23.6,22.1h1.6c0.4,0,0.7-0.3,0.7-0.7s-0.3-0.7-0.7-0.7h-3.5c-0.4,0-0.7,0.3-0.7,0.7
		v3.5c0,0.4,0.3,0.7,0.7,0.7c0.4,0,0.7-0.3,0.7-0.7v-2l3.1,2.8c0.1,0.1,0.3,0.2,0.5,0.2c0.2,0,0.4-0.1,0.5-0.2c0.3-0.3,0.2-0.7,0-1
		L23.6,22.1 M18.2,20.7h-14c-0.4,0-0.7,0.3-0.7,0.7s0.3,0.7,0.7,0.7h14c0.4,0,0.7-0.3,0.7-0.7S18.6,20.7,18.2,20.7 M18.2,24.9h-14
		c-0.4,0-0.7,0.3-0.7,0.7c0,0.4,0.3,0.7,0.7,0.7h14c0.4,0,0.7-0.3,0.7-0.7C18.9,25.2,18.6,24.9,18.2,24.9 M11.9,17.9H3.5
		c-0.4,0-0.7-0.3-0.7-0.7V8.8c0-0.4,0.3-0.7,0.7-0.7h8.4c0.4,0,0.7,0.3,0.7,0.7v8.4C12.6,17.6,12.3,17.9,11.9,17.9z M4.2,16.5h7v-7
		h-7V16.5z"/>
</g>
</svg>
