<?xml version="1.0" encoding="utf-8"?>
<!-- Generator: Adobe Illustrator 22.1.0, SVG Export Plug-In . SVG Version: 6.00 Build 0)  -->
<svg version="1.1" id="Layer_1" xmlns="http://www.w3.org/2000/svg" xmlns:xlink="http://www.w3.org/1999/xlink" x="0px" y="0px"
	 width="512px" height="512px" viewBox="0 0 512 512" style="enable-background:new 0 0 512 512;" xml:space="preserve">
<style type="text/css">
	.st0{fill:none;}
	.st1{fill:#002833;}
	.st2{fill:#EDF0F4;}
	.st3{fill:#E8E8E8;}
	.st4{fill:#C9C9C9;}
	.st5{fill:#738C82;}
	.st6{fill:#FFFFFF;}
	.st7{fill:#7A7C7C;}
</style>
<path class="st0" d="M276.5,347.2h-40.9c-1.8,0-3.2,1.5-3.2,3.2l0,0c0-1.8,1.5-3.2,3.2-3.2H276.5c1.8,0,3.2,1.5,3.2,3.2l0,0
	C279.7,348.7,278.2,347.2,276.5,347.2z"/>
<g>
	<path class="st1" d="M473.7,396.8V102.4c0-7-5.8-12.8-12.8-12.8H51.4c-7,0-12.8,5.8-12.8,12.8v294.4
		C38.6,396.8,474.7,396.8,473.7,396.8z"/>
	<rect x="57.8" y="106.6" class="st2" width="396.7" height="290.2"/>
	<rect y="396.8" class="st3" width="512" height="8.6"/>
	<polygon class="st4" points="486.4,422.4 25.6,422.4 0,405.4 512,405.4 	"/>
</g>
<g>
	<path class="st0" d="M255.8,110.3c2.1,0,3.7-1.8,3.7-3.7l0,0C259.6,108.6,257.9,110.3,255.8,110.3c-2.1,0-3.7-1.8-3.7-3.7l0,0
		C252.1,108.6,253.7,110.3,255.8,110.3z"/>
	<rect x="81.5" y="127.8" width="351.5" height="31.5"/>
	<rect x="81.5" y="127.8" class="st5" width="351.5" height="31.5"/>
	<rect x="325" y="164.9" class="st6" width="107.9" height="207.3"/>
	<g>
		<rect x="81.5" y="167" class="st7" width="232.1" height="8.6"/>
		<rect x="81.5" y="185" class="st7" width="98.3" height="8.6"/>
		<rect x="81.5" y="202.9" class="st7" width="232.1" height="8.6"/>
		<rect x="81.5" y="220.7" class="st7" width="232.1" height="8.6"/>
		<rect x="81.5" y="238.7" class="st7" width="232.1" height="8.6"/>
		<rect x="81.5" y="256.5" class="st7" width="98.3" height="8.6"/>
		<rect x="81.5" y="274.4" class="st7" width="232.1" height="8.6"/>
		<rect x="81.5" y="292.2" class="st7" width="232.1" height="8.6"/>
		<rect x="81.5" y="310.1" class="st7" width="232.1" height="8.6"/>
		<rect x="81.5" y="327.9" class="st7" width="98.3" height="8.6"/>
		<rect x="81.5" y="345.8" class="st7" width="232.1" height="8.6"/>
		<rect x="81.5" y="363.6" class="st7" width="232.1" height="8.6"/>
	</g>
</g>
</svg>
