<?xml version="1.0" encoding="utf-8"?>
<!-- Generator: Adobe Illustrator 21.1.0, SVG Export Plug-In . SVG Version: 6.00 Build 0)  -->
<svg version="1.1" id="Layer_1" xmlns="http://www.w3.org/2000/svg" xmlns:xlink="http://www.w3.org/1999/xlink" x="0px" y="0px"
	 viewBox="0 0 512 512" style="enable-background:new 0 0 512 512;" xml:space="preserve">
<style type="text/css">
	.st0{fill:#002833;}
	.st1{fill:#EDF0F4;}
	.st2{fill:#E8E8E8;}
	.st3{fill:#C9C9C9;}
	.st4{fill:#738C82;}
	.st5{fill:#FFFFFF;}
</style>
<path class="st0" d="M473.7,396.8V102.4c0-7-5.8-12.8-12.8-12.8H51.4c-7,0-12.8,5.8-12.8,12.8v294.4
	C38.6,396.8,474.7,396.8,473.7,396.8z"/>
<rect x="57.8" y="106.6" class="st1" width="396.7" height="290.2"/>
<rect y="396.8" class="st2" width="512" height="8.6"/>
<polygon class="st3" points="486.4,422.4 25.6,422.4 0,405.4 512,405.4 "/>
<rect x="181.7" y="269.4" class="st4" width="23.4" height="64"/>
<g>
	<rect x="142.6" y="295.5" class="st5" width="23.4" height="37.8"/>
	<rect x="220.6" y="233.8" class="st5" width="23.4" height="99.5"/>
</g>
<rect x="259.6" y="169.8" class="st4" width="23.4" height="163.5"/>
<rect x="298.6" y="202.9" class="st5" width="23.4" height="130.5"/>
<rect x="337.6" y="255.4" class="st4" width="23.4" height="78.2"/>
</svg>
